solid OpenSCAD_Model
  facet normal -0.844317 -0.535845 0
    outer loop
      vertex -2.6293 -1.9103 0
      vertex -2.848 -1.5657 13
      vertex -2.848 -1.5657 0
    endloop
  endfacet
  facet normal -0.844317 -0.535845 0
    outer loop
      vertex -2.848 -1.5657 13
      vertex -2.6293 -1.9103 0
      vertex -2.6293 -1.9103 13
    endloop
  endfacet
  facet normal 0 -1 0
    outer loop
      vertex -0.204069 -3.24359 0
      vertex 0.204069 -3.24359 13
      vertex -0.204069 -3.24359 13
    endloop
  endfacet
  facet normal 0 -1 -0
    outer loop
      vertex 0.204069 -3.24359 13
      vertex -0.204069 -3.24359 0
      vertex 0.204069 -3.24359 0
    endloop
  endfacet
  facet normal -0.770526 0.637409 0
    outer loop
      vertex -2.6293 1.9103 0
      vertex -2.36915 2.22478 13
      vertex -2.36915 2.22478 0
    endloop
  endfacet
  facet normal -0.770526 0.637409 0
    outer loop
      vertex -2.36915 2.22478 13
      vertex -2.6293 1.9103 0
      vertex -2.6293 1.9103 13
    endloop
  endfacet
  facet normal -0.951057 0.309017 0
    outer loop
      vertex -3.14789 0.808242 0
      vertex -3.02177 1.1964 13
      vertex -3.02177 1.1964 0
    endloop
  endfacet
  facet normal -0.951057 0.309017 0
    outer loop
      vertex -3.02177 1.1964 13
      vertex -3.14789 0.808242 0
      vertex -3.14789 0.808242 13
    endloop
  endfacet
  facet normal 0.844317 0.535845 0
    outer loop
      vertex 2.848 1.5657 13
      vertex 2.6293 1.9103 0
      vertex 2.6293 1.9103 13
    endloop
  endfacet
  facet normal 0.844317 0.535845 0
    outer loop
      vertex 2.6293 1.9103 0
      vertex 2.848 1.5657 13
      vertex 2.848 1.5657 0
    endloop
  endfacet
  facet normal 0.58779 0.809014 -0
    outer loop
      vertex 2.07163 2.50417 0
      vertex 1.74144 2.74407 13
      vertex 2.07163 2.50417 13
    endloop
  endfacet
  facet normal 0.58779 0.809014 0
    outer loop
      vertex 1.74144 2.74407 13
      vertex 2.07163 2.50417 0
      vertex 1.74144 2.74407 0
    endloop
  endfacet
  facet normal -0.982286 0.187387 0
    outer loop
      vertex -3.22437 0.407332 0
      vertex -3.14789 0.808242 13
      vertex -3.14789 0.808242 0
    endloop
  endfacet
  facet normal -0.982286 0.187387 0
    outer loop
      vertex -3.14789 0.808242 13
      vertex -3.22437 0.407332 0
      vertex -3.22437 0.407332 13
    endloop
  endfacet
  facet normal 0.904836 0.42576 0
    outer loop
      vertex 3.02177 1.1964 13
      vertex 2.848 1.5657 0
      vertex 2.848 1.5657 13
    endloop
  endfacet
  facet normal 0.904836 0.42576 0
    outer loop
      vertex 2.848 1.5657 0
      vertex 3.02177 1.1964 13
      vertex 3.02177 1.1964 0
    endloop
  endfacet
  facet normal 0.125349 0.992113 -0
    outer loop
      vertex 0.608989 3.19243 0
      vertex 0.204069 3.24359 13
      vertex 0.608989 3.19243 13
    endloop
  endfacet
  facet normal 0.125349 0.992113 0
    outer loop
      vertex 0.204069 3.24359 13
      vertex 0.608989 3.19243 0
      vertex 0.204069 3.24359 0
    endloop
  endfacet
  facet normal 0.998026 0.0627975 0
    outer loop
      vertex 3.25 0 13
      vertex 3.22437 0.407332 0
      vertex 3.22437 0.407332 13
    endloop
  endfacet
  facet normal 0.998026 0.0627975 0
    outer loop
      vertex 3.22437 0.407332 0
      vertex 3.25 0 13
      vertex 3.25 0 0
    endloop
  endfacet
  facet normal 0 1 -0
    outer loop
      vertex 0.204069 3.24359 0
      vertex -0.204069 3.24359 13
      vertex 0.204069 3.24359 13
    endloop
  endfacet
  facet normal 0 1 0
    outer loop
      vertex -0.204069 3.24359 13
      vertex 0.204069 3.24359 0
      vertex -0.204069 3.24359 0
    endloop
  endfacet
  facet normal -0.125349 0.992113 0
    outer loop
      vertex -0.204069 3.24359 0
      vertex -0.608989 3.19243 13
      vertex -0.204069 3.24359 13
    endloop
  endfacet
  facet normal -0.125349 0.992113 0
    outer loop
      vertex -0.608989 3.19243 13
      vertex -0.204069 3.24359 0
      vertex -0.608989 3.19243 0
    endloop
  endfacet
  facet normal -0.125349 -0.992113 0
    outer loop
      vertex -0.608989 -3.19243 0
      vertex -0.204069 -3.24359 13
      vertex -0.608989 -3.19243 13
    endloop
  endfacet
  facet normal -0.125349 -0.992113 -0
    outer loop
      vertex -0.204069 -3.24359 13
      vertex -0.608989 -3.19243 0
      vertex -0.204069 -3.24359 0
    endloop
  endfacet
  facet normal -0.684547 -0.728968 0
    outer loop
      vertex -2.36915 -2.22478 0
      vertex -2.07163 -2.50417 13
      vertex -2.36915 -2.22478 13
    endloop
  endfacet
  facet normal -0.684547 -0.728968 -0
    outer loop
      vertex -2.07163 -2.50417 13
      vertex -2.36915 -2.22478 0
      vertex -2.07163 -2.50417 0
    endloop
  endfacet
  facet normal -0.248693 0.968582 0
    outer loop
      vertex -0.608989 3.19243 0
      vertex -1.0043 3.09093 13
      vertex -0.608989 3.19243 13
    endloop
  endfacet
  facet normal -0.248693 0.968582 0
    outer loop
      vertex -1.0043 3.09093 13
      vertex -0.608989 3.19243 0
      vertex -1.0043 3.09093 0
    endloop
  endfacet
  facet normal 0.125349 -0.992113 0
    outer loop
      vertex 0.204069 -3.24359 0
      vertex 0.608989 -3.19243 13
      vertex 0.204069 -3.24359 13
    endloop
  endfacet
  facet normal 0.125349 -0.992113 0
    outer loop
      vertex 0.608989 -3.19243 13
      vertex 0.204069 -3.24359 0
      vertex 0.608989 -3.19243 0
    endloop
  endfacet
  facet normal -0.684547 0.728968 0
    outer loop
      vertex -2.07163 2.50417 0
      vertex -2.36915 2.22478 13
      vertex -2.07163 2.50417 13
    endloop
  endfacet
  facet normal -0.684547 0.728968 0
    outer loop
      vertex -2.36915 2.22478 13
      vertex -2.07163 2.50417 0
      vertex -2.36915 2.22478 0
    endloop
  endfacet
  facet normal -0.481744 0.876312 0
    outer loop
      vertex -1.38378 2.94069 0
      vertex -1.74144 2.74407 13
      vertex -1.38378 2.94069 13
    endloop
  endfacet
  facet normal -0.481744 0.876312 0
    outer loop
      vertex -1.74144 2.74407 13
      vertex -1.38378 2.94069 0
      vertex -1.74144 2.74407 0
    endloop
  endfacet
  facet normal 0.36811 -0.929782 0
    outer loop
      vertex 1.0043 -3.09093 0
      vertex 1.38378 -2.94069 13
      vertex 1.0043 -3.09093 13
    endloop
  endfacet
  facet normal 0.36811 -0.929782 0
    outer loop
      vertex 1.38378 -2.94069 13
      vertex 1.0043 -3.09093 0
      vertex 1.38378 -2.94069 0
    endloop
  endfacet
  facet normal 0.982286 0.187387 0
    outer loop
      vertex 3.22437 0.407332 13
      vertex 3.14789 0.808242 0
      vertex 3.14789 0.808242 13
    endloop
  endfacet
  facet normal 0.982286 0.187387 0
    outer loop
      vertex 3.14789 0.808242 0
      vertex 3.22437 0.407332 13
      vertex 3.22437 0.407332 0
    endloop
  endfacet
  facet normal 0.844317 -0.535845 0
    outer loop
      vertex 2.6293 -1.9103 13
      vertex 2.848 -1.5657 0
      vertex 2.848 -1.5657 13
    endloop
  endfacet
  facet normal 0.844317 -0.535845 0
    outer loop
      vertex 2.848 -1.5657 0
      vertex 2.6293 -1.9103 13
      vertex 2.6293 -1.9103 0
    endloop
  endfacet
  facet normal -0.58779 0.809014 0
    outer loop
      vertex -1.74144 2.74407 0
      vertex -2.07163 2.50417 13
      vertex -1.74144 2.74407 13
    endloop
  endfacet
  facet normal -0.58779 0.809014 0
    outer loop
      vertex -2.07163 2.50417 13
      vertex -1.74144 2.74407 0
      vertex -2.07163 2.50417 0
    endloop
  endfacet
  facet normal 0.904836 -0.42576 0
    outer loop
      vertex 2.848 -1.5657 13
      vertex 3.02177 -1.1964 0
      vertex 3.02177 -1.1964 13
    endloop
  endfacet
  facet normal 0.904836 -0.42576 0
    outer loop
      vertex 3.02177 -1.1964 0
      vertex 2.848 -1.5657 13
      vertex 2.848 -1.5657 0
    endloop
  endfacet
  facet normal 0.684547 -0.728968 0
    outer loop
      vertex 2.07163 -2.50417 0
      vertex 2.36915 -2.22478 13
      vertex 2.07163 -2.50417 13
    endloop
  endfacet
  facet normal 0.684547 -0.728968 0
    outer loop
      vertex 2.36915 -2.22478 13
      vertex 2.07163 -2.50417 0
      vertex 2.36915 -2.22478 0
    endloop
  endfacet
  facet normal -0.36811 0.929782 0
    outer loop
      vertex -1.0043 3.09093 0
      vertex -1.38378 2.94069 13
      vertex -1.0043 3.09093 13
    endloop
  endfacet
  facet normal -0.36811 0.929782 0
    outer loop
      vertex -1.38378 2.94069 13
      vertex -1.0043 3.09093 0
      vertex -1.38378 2.94069 0
    endloop
  endfacet
  facet normal 0.951057 -0.309017 0
    outer loop
      vertex 3.02177 -1.1964 13
      vertex 3.14789 -0.808242 0
      vertex 3.14789 -0.808242 13
    endloop
  endfacet
  facet normal 0.951057 -0.309017 0
    outer loop
      vertex 3.14789 -0.808242 0
      vertex 3.02177 -1.1964 13
      vertex 3.02177 -1.1964 0
    endloop
  endfacet
  facet normal -0.951057 -0.309017 0
    outer loop
      vertex -3.02177 -1.1964 0
      vertex -3.14789 -0.808242 13
      vertex -3.14789 -0.808242 0
    endloop
  endfacet
  facet normal -0.951057 -0.309017 0
    outer loop
      vertex -3.14789 -0.808242 13
      vertex -3.02177 -1.1964 0
      vertex -3.02177 -1.1964 13
    endloop
  endfacet
  facet normal -0.481744 -0.876312 0
    outer loop
      vertex -1.74144 -2.74407 0
      vertex -1.38378 -2.94069 13
      vertex -1.74144 -2.74407 13
    endloop
  endfacet
  facet normal -0.481744 -0.876312 -0
    outer loop
      vertex -1.38378 -2.94069 13
      vertex -1.74144 -2.74407 0
      vertex -1.38378 -2.94069 0
    endloop
  endfacet
  facet normal 0.951057 0.309017 0
    outer loop
      vertex 3.14789 0.808242 13
      vertex 3.02177 1.1964 0
      vertex 3.02177 1.1964 13
    endloop
  endfacet
  facet normal 0.951057 0.309017 0
    outer loop
      vertex 3.02177 1.1964 0
      vertex 3.14789 0.808242 13
      vertex 3.14789 0.808242 0
    endloop
  endfacet
  facet normal 0.770526 0.637409 0
    outer loop
      vertex 2.6293 1.9103 13
      vertex 2.36915 2.22478 0
      vertex 2.36915 2.22478 13
    endloop
  endfacet
  facet normal 0.770526 0.637409 0
    outer loop
      vertex 2.36915 2.22478 0
      vertex 2.6293 1.9103 13
      vertex 2.6293 1.9103 0
    endloop
  endfacet
  facet normal -0.904836 0.42576 0
    outer loop
      vertex -3.02177 1.1964 0
      vertex -2.848 1.5657 13
      vertex -2.848 1.5657 0
    endloop
  endfacet
  facet normal -0.904836 0.42576 0
    outer loop
      vertex -2.848 1.5657 13
      vertex -3.02177 1.1964 0
      vertex -3.02177 1.1964 13
    endloop
  endfacet
  facet normal 0.998026 -0.0627975 0
    outer loop
      vertex 3.22437 -0.407332 13
      vertex 3.25 0 0
      vertex 3.25 0 13
    endloop
  endfacet
  facet normal 0.998026 -0.0627975 0
    outer loop
      vertex 3.25 0 0
      vertex 3.22437 -0.407332 13
      vertex 3.22437 -0.407332 0
    endloop
  endfacet
  facet normal -0.844317 0.535845 0
    outer loop
      vertex -2.848 1.5657 0
      vertex -2.6293 1.9103 13
      vertex -2.6293 1.9103 0
    endloop
  endfacet
  facet normal -0.844317 0.535845 0
    outer loop
      vertex -2.6293 1.9103 13
      vertex -2.848 1.5657 0
      vertex -2.848 1.5657 13
    endloop
  endfacet
  facet normal 0.684547 0.728968 -0
    outer loop
      vertex 2.36915 2.22478 0
      vertex 2.07163 2.50417 13
      vertex 2.36915 2.22478 13
    endloop
  endfacet
  facet normal 0.684547 0.728968 0
    outer loop
      vertex 2.07163 2.50417 13
      vertex 2.36915 2.22478 0
      vertex 2.07163 2.50417 0
    endloop
  endfacet
  facet normal -0.58779 -0.809014 0
    outer loop
      vertex -2.07163 -2.50417 0
      vertex -1.74144 -2.74407 13
      vertex -2.07163 -2.50417 13
    endloop
  endfacet
  facet normal -0.58779 -0.809014 -0
    outer loop
      vertex -1.74144 -2.74407 13
      vertex -2.07163 -2.50417 0
      vertex -1.74144 -2.74407 0
    endloop
  endfacet
  facet normal 0.481744 -0.876312 0
    outer loop
      vertex 1.38378 -2.94069 0
      vertex 1.74144 -2.74407 13
      vertex 1.38378 -2.94069 13
    endloop
  endfacet
  facet normal 0.481744 -0.876312 0
    outer loop
      vertex 1.74144 -2.74407 13
      vertex 1.38378 -2.94069 0
      vertex 1.74144 -2.74407 0
    endloop
  endfacet
  facet normal -0.904836 -0.42576 0
    outer loop
      vertex -2.848 -1.5657 0
      vertex -3.02177 -1.1964 13
      vertex -3.02177 -1.1964 0
    endloop
  endfacet
  facet normal -0.904836 -0.42576 0
    outer loop
      vertex -3.02177 -1.1964 13
      vertex -2.848 -1.5657 0
      vertex -2.848 -1.5657 13
    endloop
  endfacet
  facet normal 0.982286 -0.187387 0
    outer loop
      vertex 3.14789 -0.808242 13
      vertex 3.22437 -0.407332 0
      vertex 3.22437 -0.407332 13
    endloop
  endfacet
  facet normal 0.982286 -0.187387 0
    outer loop
      vertex 3.22437 -0.407332 0
      vertex 3.14789 -0.808242 13
      vertex 3.14789 -0.808242 0
    endloop
  endfacet
  facet normal 0.248693 0.968582 -0
    outer loop
      vertex 1.0043 3.09093 0
      vertex 0.608989 3.19243 13
      vertex 1.0043 3.09093 13
    endloop
  endfacet
  facet normal 0.248693 0.968582 0
    outer loop
      vertex 0.608989 3.19243 13
      vertex 1.0043 3.09093 0
      vertex 0.608989 3.19243 0
    endloop
  endfacet
  facet normal -0.36811 -0.929782 0
    outer loop
      vertex -1.38378 -2.94069 0
      vertex -1.0043 -3.09093 13
      vertex -1.38378 -2.94069 13
    endloop
  endfacet
  facet normal -0.36811 -0.929782 -0
    outer loop
      vertex -1.0043 -3.09093 13
      vertex -1.38378 -2.94069 0
      vertex -1.0043 -3.09093 0
    endloop
  endfacet
  facet normal 0.36811 0.929782 -0
    outer loop
      vertex 1.38378 2.94069 0
      vertex 1.0043 3.09093 13
      vertex 1.38378 2.94069 13
    endloop
  endfacet
  facet normal 0.36811 0.929782 0
    outer loop
      vertex 1.0043 3.09093 13
      vertex 1.38378 2.94069 0
      vertex 1.0043 3.09093 0
    endloop
  endfacet
  facet normal -0.770526 -0.637409 0
    outer loop
      vertex -2.36915 -2.22478 0
      vertex -2.6293 -1.9103 13
      vertex -2.6293 -1.9103 0
    endloop
  endfacet
  facet normal -0.770526 -0.637409 0
    outer loop
      vertex -2.6293 -1.9103 13
      vertex -2.36915 -2.22478 0
      vertex -2.36915 -2.22478 13
    endloop
  endfacet
  facet normal 0.248693 -0.968582 0
    outer loop
      vertex 0.608989 -3.19243 0
      vertex 1.0043 -3.09093 13
      vertex 0.608989 -3.19243 13
    endloop
  endfacet
  facet normal 0.248693 -0.968582 0
    outer loop
      vertex 1.0043 -3.09093 13
      vertex 0.608989 -3.19243 0
      vertex 1.0043 -3.09093 0
    endloop
  endfacet
  facet normal 0.481744 0.876312 -0
    outer loop
      vertex 1.74144 2.74407 0
      vertex 1.38378 2.94069 13
      vertex 1.74144 2.74407 13
    endloop
  endfacet
  facet normal 0.481744 0.876312 0
    outer loop
      vertex 1.38378 2.94069 13
      vertex 1.74144 2.74407 0
      vertex 1.38378 2.94069 0
    endloop
  endfacet
  facet normal 0 0 -1
    outer loop
      vertex 2.25 0 0
      vertex 3.25 0 0
      vertex 3.22437 -0.407332 0
    endloop
  endfacet
  facet normal 0 0 -1
    outer loop
      vertex 2.23226 -0.282 0
      vertex 3.22437 -0.407332 0
      vertex 3.14789 -0.808242 0
    endloop
  endfacet
  facet normal 0 0 -1
    outer loop
      vertex 3.25 0 0
      vertex 2.25 0 0
      vertex 3.22437 0.407332 0
    endloop
  endfacet
  facet normal 0 0 -1
    outer loop
      vertex 2.17931 -0.559552 0
      vertex 3.14789 -0.808242 0
      vertex 3.02177 -1.1964 0
    endloop
  endfacet
  facet normal 0 0 -1
    outer loop
      vertex 2.23226 0.282 0
      vertex 3.22437 0.407332 0
      vertex 2.25 0 0
    endloop
  endfacet
  facet normal 0 0 -1
    outer loop
      vertex 2.092 -0.828279 0
      vertex 3.02177 -1.1964 0
      vertex 2.848 -1.5657 0
    endloop
  endfacet
  facet normal -0 0 -1
    outer loop
      vertex 3.22437 0.407332 0
      vertex 2.23226 0.282 0
      vertex 3.14789 0.808242 0
    endloop
  endfacet
  facet normal 0 0 -1
    outer loop
      vertex 1.97169 -1.08395 0
      vertex 2.848 -1.5657 0
      vertex 2.6293 -1.9103 0
    endloop
  endfacet
  facet normal 0 0 -1
    outer loop
      vertex 2.17931 0.559552 0
      vertex 3.14789 0.808242 0
      vertex 2.23226 0.282 0
    endloop
  endfacet
  facet normal 0 0 -1
    outer loop
      vertex 1.82029 -1.32252 0
      vertex 2.6293 -1.9103 0
      vertex 2.36915 -2.22478 0
    endloop
  endfacet
  facet normal -0 0 -1
    outer loop
      vertex 3.14789 0.808242 0
      vertex 2.17931 0.559552 0
      vertex 3.02177 1.1964 0
    endloop
  endfacet
  facet normal 0 0 -1
    outer loop
      vertex 2.092 0.828279 0
      vertex 3.02177 1.1964 0
      vertex 2.17931 0.559552 0
    endloop
  endfacet
  facet normal 0 0 -1
    outer loop
      vertex 3.22437 -0.407332 0
      vertex 2.23226 -0.282 0
      vertex 2.25 0 0
    endloop
  endfacet
  facet normal 0 0 -1
    outer loop
      vertex 3.14789 -0.808242 0
      vertex 2.17931 -0.559552 0
      vertex 2.23226 -0.282 0
    endloop
  endfacet
  facet normal 0 0 -1
    outer loop
      vertex 3.02177 -1.1964 0
      vertex 2.092 -0.828279 0
      vertex 2.17931 -0.559552 0
    endloop
  endfacet
  facet normal 0 0 -1
    outer loop
      vertex 1.64018 -1.54023 0
      vertex 2.36915 -2.22478 0
      vertex 2.07163 -2.50417 0
    endloop
  endfacet
  facet normal 0 0 -1
    outer loop
      vertex 2.848 -1.5657 0
      vertex 1.97169 -1.08395 0
      vertex 2.092 -0.828279 0
    endloop
  endfacet
  facet normal 0 0 -1
    outer loop
      vertex 2.6293 -1.9103 0
      vertex 1.82029 -1.32252 0
      vertex 1.97169 -1.08395 0
    endloop
  endfacet
  facet normal 0 0 -1
    outer loop
      vertex 1.4342 -1.73365 0
      vertex 2.07163 -2.50417 0
      vertex 1.74144 -2.74407 0
    endloop
  endfacet
  facet normal 0 0 -1
    outer loop
      vertex 2.36915 -2.22478 0
      vertex 1.64018 -1.54023 0
      vertex 1.82029 -1.32252 0
    endloop
  endfacet
  facet normal 0 0 -1
    outer loop
      vertex 2.07163 -2.50417 0
      vertex 1.4342 -1.73365 0
      vertex 1.64018 -1.54023 0
    endloop
  endfacet
  facet normal 0 0 -1
    outer loop
      vertex 1.20561 -1.89974 0
      vertex 1.74144 -2.74407 0
      vertex 1.38378 -2.94069 0
    endloop
  endfacet
  facet normal 0 0 -1
    outer loop
      vertex 1.74144 -2.74407 0
      vertex 1.20561 -1.89974 0
      vertex 1.4342 -1.73365 0
    endloop
  endfacet
  facet normal 0 0 -1
    outer loop
      vertex 0.958003 -2.03586 0
      vertex 1.38378 -2.94069 0
      vertex 1.0043 -3.09093 0
    endloop
  endfacet
  facet normal 0 0 -1
    outer loop
      vertex 1.38378 -2.94069 0
      vertex 0.958003 -2.03586 0
      vertex 1.20561 -1.89974 0
    endloop
  endfacet
  facet normal 0 0 -1
    outer loop
      vertex 1.0043 -3.09093 0
      vertex 0.695288 -2.13988 0
      vertex 0.958003 -2.03586 0
    endloop
  endfacet
  facet normal 0 0 -1
    outer loop
      vertex 0.608989 -3.19243 0
      vertex 0.695288 -2.13988 0
      vertex 1.0043 -3.09093 0
    endloop
  endfacet
  facet normal 0 0 -1
    outer loop
      vertex 0.608989 -3.19243 0
      vertex 0.421607 -2.21015 0
      vertex 0.695288 -2.13988 0
    endloop
  endfacet
  facet normal 0 0 -1
    outer loop
      vertex 0.204069 -3.24359 0
      vertex 0.421607 -2.21015 0
      vertex 0.608989 -3.19243 0
    endloop
  endfacet
  facet normal 0 0 -1
    outer loop
      vertex 0.204069 -3.24359 0
      vertex 0.141278 -2.24556 0
      vertex 0.421607 -2.21015 0
    endloop
  endfacet
  facet normal 0 0 -1
    outer loop
      vertex 0.204069 -3.24359 0
      vertex -0.141278 -2.24556 0
      vertex 0.141278 -2.24556 0
    endloop
  endfacet
  facet normal 0 0 -1
    outer loop
      vertex -0.204069 -3.24359 0
      vertex -0.141278 -2.24556 0
      vertex 0.204069 -3.24359 0
    endloop
  endfacet
  facet normal 0 0 -1
    outer loop
      vertex -0.204069 -3.24359 0
      vertex -0.421607 -2.21015 0
      vertex -0.141278 -2.24556 0
    endloop
  endfacet
  facet normal 0 0 -1
    outer loop
      vertex -0.608989 -3.19243 0
      vertex -0.421607 -2.21015 0
      vertex -0.204069 -3.24359 0
    endloop
  endfacet
  facet normal 0 0 -1
    outer loop
      vertex -0.608989 -3.19243 0
      vertex -0.695288 -2.13988 0
      vertex -0.421607 -2.21015 0
    endloop
  endfacet
  facet normal 0 0 -1
    outer loop
      vertex -1.0043 -3.09093 0
      vertex -0.695288 -2.13988 0
      vertex -0.608989 -3.19243 0
    endloop
  endfacet
  facet normal -0 0 -1
    outer loop
      vertex -0.695288 -2.13988 0
      vertex -1.0043 -3.09093 0
      vertex -0.958003 -2.03586 0
    endloop
  endfacet
  facet normal 0 0 -1
    outer loop
      vertex -1.38378 -2.94069 0
      vertex -0.958003 -2.03586 0
      vertex -1.0043 -3.09093 0
    endloop
  endfacet
  facet normal -0 0 -1
    outer loop
      vertex -0.958003 -2.03586 0
      vertex -1.38378 -2.94069 0
      vertex -1.20561 -1.89974 0
    endloop
  endfacet
  facet normal 0 0 -1
    outer loop
      vertex -1.74144 -2.74407 0
      vertex -1.20561 -1.89974 0
      vertex -1.38378 -2.94069 0
    endloop
  endfacet
  facet normal -0 0 -1
    outer loop
      vertex -1.20561 -1.89974 0
      vertex -1.74144 -2.74407 0
      vertex -1.4342 -1.73365 0
    endloop
  endfacet
  facet normal 0 0 -1
    outer loop
      vertex -2.07163 -2.50417 0
      vertex -1.4342 -1.73365 0
      vertex -1.74144 -2.74407 0
    endloop
  endfacet
  facet normal -0 0 -1
    outer loop
      vertex -1.4342 -1.73365 0
      vertex -2.07163 -2.50417 0
      vertex -1.64018 -1.54023 0
    endloop
  endfacet
  facet normal 0 0 -1
    outer loop
      vertex -2.36915 -2.22478 0
      vertex -1.64018 -1.54023 0
      vertex -2.07163 -2.50417 0
    endloop
  endfacet
  facet normal -0 0 -1
    outer loop
      vertex -1.64018 -1.54023 0
      vertex -2.36915 -2.22478 0
      vertex -1.82029 -1.32252 0
    endloop
  endfacet
  facet normal 0 0 -1
    outer loop
      vertex -2.6293 -1.9103 0
      vertex -1.82029 -1.32252 0
      vertex -2.36915 -2.22478 0
    endloop
  endfacet
  facet normal -0 0 -1
    outer loop
      vertex -1.82029 -1.32252 0
      vertex -2.6293 -1.9103 0
      vertex -1.97169 -1.08395 0
    endloop
  endfacet
  facet normal 0 0 -1
    outer loop
      vertex -2.848 -1.5657 0
      vertex -1.97169 -1.08395 0
      vertex -2.6293 -1.9103 0
    endloop
  endfacet
  facet normal 0 0 -1
    outer loop
      vertex -3.02177 -1.1964 0
      vertex -2.092 -0.828279 0
      vertex -2.848 -1.5657 0
    endloop
  endfacet
  facet normal -0 0 -1
    outer loop
      vertex -1.97169 -1.08395 0
      vertex -2.848 -1.5657 0
      vertex -2.092 -0.828279 0
    endloop
  endfacet
  facet normal -0 0 -1
    outer loop
      vertex 3.02177 1.1964 0
      vertex 2.092 0.828279 0
      vertex 2.848 1.5657 0
    endloop
  endfacet
  facet normal 0 0 -1
    outer loop
      vertex 1.97169 1.08395 0
      vertex 2.848 1.5657 0
      vertex 2.092 0.828279 0
    endloop
  endfacet
  facet normal -0 0 -1
    outer loop
      vertex 2.848 1.5657 0
      vertex 1.97169 1.08395 0
      vertex 2.6293 1.9103 0
    endloop
  endfacet
  facet normal 0 0 -1
    outer loop
      vertex 1.82029 1.32252 0
      vertex 2.6293 1.9103 0
      vertex 1.97169 1.08395 0
    endloop
  endfacet
  facet normal -0 0 -1
    outer loop
      vertex 2.6293 1.9103 0
      vertex 1.82029 1.32252 0
      vertex 2.36915 2.22478 0
    endloop
  endfacet
  facet normal 0 0 -1
    outer loop
      vertex 1.64018 1.54023 0
      vertex 2.36915 2.22478 0
      vertex 1.82029 1.32252 0
    endloop
  endfacet
  facet normal -0 0 -1
    outer loop
      vertex 2.36915 2.22478 0
      vertex 1.64018 1.54023 0
      vertex 2.07163 2.50417 0
    endloop
  endfacet
  facet normal 0 0 -1
    outer loop
      vertex 1.4342 1.73365 0
      vertex 2.07163 2.50417 0
      vertex 1.64018 1.54023 0
    endloop
  endfacet
  facet normal -0 0 -1
    outer loop
      vertex 2.07163 2.50417 0
      vertex 1.4342 1.73365 0
      vertex 1.74144 2.74407 0
    endloop
  endfacet
  facet normal 0 0 -1
    outer loop
      vertex 1.20561 1.89974 0
      vertex 1.74144 2.74407 0
      vertex 1.4342 1.73365 0
    endloop
  endfacet
  facet normal -0 0 -1
    outer loop
      vertex 1.74144 2.74407 0
      vertex 1.20561 1.89974 0
      vertex 1.38378 2.94069 0
    endloop
  endfacet
  facet normal 0 0 -1
    outer loop
      vertex 0.958003 2.03586 0
      vertex 1.38378 2.94069 0
      vertex 1.20561 1.89974 0
    endloop
  endfacet
  facet normal -0 0 -1
    outer loop
      vertex 1.38378 2.94069 0
      vertex 0.958003 2.03586 0
      vertex 1.0043 3.09093 0
    endloop
  endfacet
  facet normal 0 0 -1
    outer loop
      vertex 0.695288 2.13988 0
      vertex 1.0043 3.09093 0
      vertex 0.958003 2.03586 0
    endloop
  endfacet
  facet normal 0 0 -1
    outer loop
      vertex 0.695288 2.13988 0
      vertex 0.608989 3.19243 0
      vertex 1.0043 3.09093 0
    endloop
  endfacet
  facet normal 0 0 -1
    outer loop
      vertex 0.421607 2.21015 0
      vertex 0.608989 3.19243 0
      vertex 0.695288 2.13988 0
    endloop
  endfacet
  facet normal 0 0 -1
    outer loop
      vertex 0.421607 2.21015 0
      vertex 0.204069 3.24359 0
      vertex 0.608989 3.19243 0
    endloop
  endfacet
  facet normal 0 0 -1
    outer loop
      vertex 0.141278 2.24556 0
      vertex 0.204069 3.24359 0
      vertex 0.421607 2.21015 0
    endloop
  endfacet
  facet normal 0 0 -1
    outer loop
      vertex -0.141278 2.24556 0
      vertex 0.204069 3.24359 0
      vertex 0.141278 2.24556 0
    endloop
  endfacet
  facet normal 0 0 -1
    outer loop
      vertex -0.141278 2.24556 0
      vertex -0.204069 3.24359 0
      vertex 0.204069 3.24359 0
    endloop
  endfacet
  facet normal 0 0 -1
    outer loop
      vertex -0.421607 2.21015 0
      vertex -0.204069 3.24359 0
      vertex -0.141278 2.24556 0
    endloop
  endfacet
  facet normal 0 0 -1
    outer loop
      vertex -0.421607 2.21015 0
      vertex -0.608989 3.19243 0
      vertex -0.204069 3.24359 0
    endloop
  endfacet
  facet normal 0 0 -1
    outer loop
      vertex -0.695288 2.13988 0
      vertex -0.608989 3.19243 0
      vertex -0.421607 2.21015 0
    endloop
  endfacet
  facet normal 0 0 -1
    outer loop
      vertex -1.0043 3.09093 0
      vertex -0.695288 2.13988 0
      vertex -0.958003 2.03586 0
    endloop
  endfacet
  facet normal 0 0 -1
    outer loop
      vertex -0.695288 2.13988 0
      vertex -1.0043 3.09093 0
      vertex -0.608989 3.19243 0
    endloop
  endfacet
  facet normal 0 0 -1
    outer loop
      vertex -1.38378 2.94069 0
      vertex -0.958003 2.03586 0
      vertex -1.20561 1.89974 0
    endloop
  endfacet
  facet normal 0 0 -1
    outer loop
      vertex -0.958003 2.03586 0
      vertex -1.38378 2.94069 0
      vertex -1.0043 3.09093 0
    endloop
  endfacet
  facet normal 0 0 -1
    outer loop
      vertex -1.74144 2.74407 0
      vertex -1.20561 1.89974 0
      vertex -1.4342 1.73365 0
    endloop
  endfacet
  facet normal 0 0 -1
    outer loop
      vertex -2.07163 2.50417 0
      vertex -1.4342 1.73365 0
      vertex -1.64018 1.54023 0
    endloop
  endfacet
  facet normal 0 0 -1
    outer loop
      vertex -1.20561 1.89974 0
      vertex -1.74144 2.74407 0
      vertex -1.38378 2.94069 0
    endloop
  endfacet
  facet normal 0 0 -1
    outer loop
      vertex -2.36915 2.22478 0
      vertex -1.64018 1.54023 0
      vertex -1.82029 1.32252 0
    endloop
  endfacet
  facet normal 0 0 -1
    outer loop
      vertex -2.6293 1.9103 0
      vertex -1.82029 1.32252 0
      vertex -1.97169 1.08395 0
    endloop
  endfacet
  facet normal 0 0 -1
    outer loop
      vertex -1.4342 1.73365 0
      vertex -2.07163 2.50417 0
      vertex -1.74144 2.74407 0
    endloop
  endfacet
  facet normal 0 0 -1
    outer loop
      vertex -2.848 1.5657 0
      vertex -1.97169 1.08395 0
      vertex -2.092 0.828279 0
    endloop
  endfacet
  facet normal 0 0 -1
    outer loop
      vertex -3.02177 1.1964 0
      vertex -2.092 0.828279 0
      vertex -2.17931 0.559552 0
    endloop
  endfacet
  facet normal 0 0 -1
    outer loop
      vertex -3.14789 0.808242 0
      vertex -2.17931 0.559552 0
      vertex -2.23226 0.282 0
    endloop
  endfacet
  facet normal 0 0 -1
    outer loop
      vertex -1.64018 1.54023 0
      vertex -2.36915 2.22478 0
      vertex -2.07163 2.50417 0
    endloop
  endfacet
  facet normal 0 0 -1
    outer loop
      vertex -3.22437 0.407332 0
      vertex -2.23226 0.282 0
      vertex -2.25 0 0
    endloop
  endfacet
  facet normal -0 0 -1
    outer loop
      vertex -2.092 -0.828279 0
      vertex -3.02177 -1.1964 0
      vertex -2.17931 -0.559552 0
    endloop
  endfacet
  facet normal 0 0 -1
    outer loop
      vertex -3.14789 -0.808242 0
      vertex -2.17931 -0.559552 0
      vertex -3.02177 -1.1964 0
    endloop
  endfacet
  facet normal 0 0 -1
    outer loop
      vertex -1.82029 1.32252 0
      vertex -2.6293 1.9103 0
      vertex -2.36915 2.22478 0
    endloop
  endfacet
  facet normal -0 0 -1
    outer loop
      vertex -2.17931 -0.559552 0
      vertex -3.14789 -0.808242 0
      vertex -2.23226 -0.282 0
    endloop
  endfacet
  facet normal 0 0 -1
    outer loop
      vertex -1.97169 1.08395 0
      vertex -2.848 1.5657 0
      vertex -2.6293 1.9103 0
    endloop
  endfacet
  facet normal 0 0 -1
    outer loop
      vertex -3.22437 -0.407332 0
      vertex -2.23226 -0.282 0
      vertex -3.14789 -0.808242 0
    endloop
  endfacet
  facet normal 0 0 -1
    outer loop
      vertex -2.092 0.828279 0
      vertex -3.02177 1.1964 0
      vertex -2.848 1.5657 0
    endloop
  endfacet
  facet normal -0 0 -1
    outer loop
      vertex -2.23226 -0.282 0
      vertex -3.22437 -0.407332 0
      vertex -2.25 0 0
    endloop
  endfacet
  facet normal 0 0 -1
    outer loop
      vertex -2.17931 0.559552 0
      vertex -3.14789 0.808242 0
      vertex -3.02177 1.1964 0
    endloop
  endfacet
  facet normal 0 0 -1
    outer loop
      vertex -3.25 0 0
      vertex -2.25 0 0
      vertex -3.22437 -0.407332 0
    endloop
  endfacet
  facet normal 0 0 -1
    outer loop
      vertex -2.23226 0.282 0
      vertex -3.22437 0.407332 0
      vertex -3.14789 0.808242 0
    endloop
  endfacet
  facet normal 0 0 -1
    outer loop
      vertex -2.25 0 0
      vertex -3.25 0 0
      vertex -3.22437 0.407332 0
    endloop
  endfacet
  facet normal 0.770526 -0.637409 0
    outer loop
      vertex 2.36915 -2.22478 13
      vertex 2.6293 -1.9103 0
      vertex 2.6293 -1.9103 13
    endloop
  endfacet
  facet normal 0.770526 -0.637409 0
    outer loop
      vertex 2.6293 -1.9103 0
      vertex 2.36915 -2.22478 13
      vertex 2.36915 -2.22478 0
    endloop
  endfacet
  facet normal 0.58779 -0.809014 0
    outer loop
      vertex 1.74144 -2.74407 0
      vertex 2.07163 -2.50417 13
      vertex 1.74144 -2.74407 13
    endloop
  endfacet
  facet normal 0.58779 -0.809014 0
    outer loop
      vertex 2.07163 -2.50417 13
      vertex 1.74144 -2.74407 0
      vertex 2.07163 -2.50417 0
    endloop
  endfacet
  facet normal -0.982286 -0.187387 0
    outer loop
      vertex -3.14789 -0.808242 0
      vertex -3.22437 -0.407332 13
      vertex -3.22437 -0.407332 0
    endloop
  endfacet
  facet normal -0.982286 -0.187387 0
    outer loop
      vertex -3.22437 -0.407332 13
      vertex -3.14789 -0.808242 0
      vertex -3.14789 -0.808242 13
    endloop
  endfacet
  facet normal -0.998026 -0.0627975 0
    outer loop
      vertex -3.22437 -0.407332 0
      vertex -3.25 0 13
      vertex -3.25 0 0
    endloop
  endfacet
  facet normal -0.998026 -0.0627975 0
    outer loop
      vertex -3.25 0 13
      vertex -3.22437 -0.407332 0
      vertex -3.22437 -0.407332 13
    endloop
  endfacet
  facet normal -0.998026 0.0627975 0
    outer loop
      vertex -3.25 0 0
      vertex -3.22437 0.407332 13
      vertex -3.22437 0.407332 0
    endloop
  endfacet
  facet normal -0.998026 0.0627975 0
    outer loop
      vertex -3.22437 0.407332 13
      vertex -3.25 0 0
      vertex -3.25 0 13
    endloop
  endfacet
  facet normal -0.248693 -0.968582 0
    outer loop
      vertex -1.0043 -3.09093 0
      vertex -0.608989 -3.19243 13
      vertex -1.0043 -3.09093 13
    endloop
  endfacet
  facet normal -0.248693 -0.968582 -0
    outer loop
      vertex -0.608989 -3.19243 13
      vertex -1.0043 -3.09093 0
      vertex -0.608989 -3.19243 0
    endloop
  endfacet
  facet normal 0 0 1
    outer loop
      vertex 2.25 0 13
      vertex 3.25 0 13
      vertex 3.22437 0.407332 13
    endloop
  endfacet
  facet normal 0 0 1
    outer loop
      vertex 2.23226 0.282 13
      vertex 3.22437 0.407332 13
      vertex 3.14789 0.808242 13
    endloop
  endfacet
  facet normal 0 0 1
    outer loop
      vertex 3.25 0 13
      vertex 2.25 0 13
      vertex 3.22437 -0.407332 13
    endloop
  endfacet
  facet normal 0 0 1
    outer loop
      vertex 2.17931 0.559552 13
      vertex 3.14789 0.808242 13
      vertex 3.02177 1.1964 13
    endloop
  endfacet
  facet normal -0 0 1
    outer loop
      vertex 2.23226 -0.282 13
      vertex 3.22437 -0.407332 13
      vertex 2.25 0 13
    endloop
  endfacet
  facet normal 0 0 1
    outer loop
      vertex 2.092 0.828279 13
      vertex 3.02177 1.1964 13
      vertex 2.848 1.5657 13
    endloop
  endfacet
  facet normal 0 0 1
    outer loop
      vertex 3.22437 -0.407332 13
      vertex 2.23226 -0.282 13
      vertex 3.14789 -0.808242 13
    endloop
  endfacet
  facet normal 0 0 1
    outer loop
      vertex 1.97169 1.08395 13
      vertex 2.848 1.5657 13
      vertex 2.6293 1.9103 13
    endloop
  endfacet
  facet normal -0 0 1
    outer loop
      vertex 2.17931 -0.559552 13
      vertex 3.14789 -0.808242 13
      vertex 2.23226 -0.282 13
    endloop
  endfacet
  facet normal 0 0 1
    outer loop
      vertex 1.82029 1.32252 13
      vertex 2.6293 1.9103 13
      vertex 2.36915 2.22478 13
    endloop
  endfacet
  facet normal 0 0 1
    outer loop
      vertex 3.14789 -0.808242 13
      vertex 2.17931 -0.559552 13
      vertex 3.02177 -1.1964 13
    endloop
  endfacet
  facet normal -0 0 1
    outer loop
      vertex 2.092 -0.828279 13
      vertex 3.02177 -1.1964 13
      vertex 2.17931 -0.559552 13
    endloop
  endfacet
  facet normal 0 0 1
    outer loop
      vertex 3.22437 0.407332 13
      vertex 2.23226 0.282 13
      vertex 2.25 0 13
    endloop
  endfacet
  facet normal 0 0 1
    outer loop
      vertex 3.14789 0.808242 13
      vertex 2.17931 0.559552 13
      vertex 2.23226 0.282 13
    endloop
  endfacet
  facet normal 0 0 1
    outer loop
      vertex 3.02177 1.1964 13
      vertex 2.092 0.828279 13
      vertex 2.17931 0.559552 13
    endloop
  endfacet
  facet normal 0 0 1
    outer loop
      vertex 1.64018 1.54023 13
      vertex 2.36915 2.22478 13
      vertex 2.07163 2.50417 13
    endloop
  endfacet
  facet normal 0 0 1
    outer loop
      vertex 2.848 1.5657 13
      vertex 1.97169 1.08395 13
      vertex 2.092 0.828279 13
    endloop
  endfacet
  facet normal 0 0 1
    outer loop
      vertex 2.6293 1.9103 13
      vertex 1.82029 1.32252 13
      vertex 1.97169 1.08395 13
    endloop
  endfacet
  facet normal 0 0 1
    outer loop
      vertex 1.4342 1.73365 13
      vertex 2.07163 2.50417 13
      vertex 1.74144 2.74407 13
    endloop
  endfacet
  facet normal 0 0 1
    outer loop
      vertex 2.36915 2.22478 13
      vertex 1.64018 1.54023 13
      vertex 1.82029 1.32252 13
    endloop
  endfacet
  facet normal 0 0 1
    outer loop
      vertex 2.07163 2.50417 13
      vertex 1.4342 1.73365 13
      vertex 1.64018 1.54023 13
    endloop
  endfacet
  facet normal 0 0 1
    outer loop
      vertex 1.20561 1.89974 13
      vertex 1.74144 2.74407 13
      vertex 1.38378 2.94069 13
    endloop
  endfacet
  facet normal 0 0 1
    outer loop
      vertex 1.74144 2.74407 13
      vertex 1.20561 1.89974 13
      vertex 1.4342 1.73365 13
    endloop
  endfacet
  facet normal 0 0 1
    outer loop
      vertex 0.958003 2.03586 13
      vertex 1.38378 2.94069 13
      vertex 1.0043 3.09093 13
    endloop
  endfacet
  facet normal 0 0 1
    outer loop
      vertex 1.38378 2.94069 13
      vertex 0.958003 2.03586 13
      vertex 1.20561 1.89974 13
    endloop
  endfacet
  facet normal 0 0 1
    outer loop
      vertex 1.0043 3.09093 13
      vertex 0.695288 2.13988 13
      vertex 0.958003 2.03586 13
    endloop
  endfacet
  facet normal 0 0 1
    outer loop
      vertex 0.608989 3.19243 13
      vertex 0.695288 2.13988 13
      vertex 1.0043 3.09093 13
    endloop
  endfacet
  facet normal 0 0 1
    outer loop
      vertex 0.608989 3.19243 13
      vertex 0.421607 2.21015 13
      vertex 0.695288 2.13988 13
    endloop
  endfacet
  facet normal 0 0 1
    outer loop
      vertex 0.204069 3.24359 13
      vertex 0.421607 2.21015 13
      vertex 0.608989 3.19243 13
    endloop
  endfacet
  facet normal 0 0 1
    outer loop
      vertex 0.204069 3.24359 13
      vertex 0.141278 2.24556 13
      vertex 0.421607 2.21015 13
    endloop
  endfacet
  facet normal 0 0 1
    outer loop
      vertex 0.204069 3.24359 13
      vertex -0.141278 2.24556 13
      vertex 0.141278 2.24556 13
    endloop
  endfacet
  facet normal -0 0 1
    outer loop
      vertex -0.204069 3.24359 13
      vertex -0.141278 2.24556 13
      vertex 0.204069 3.24359 13
    endloop
  endfacet
  facet normal 0 0 1
    outer loop
      vertex -0.204069 3.24359 13
      vertex -0.421607 2.21015 13
      vertex -0.141278 2.24556 13
    endloop
  endfacet
  facet normal -0 0 1
    outer loop
      vertex -0.608989 3.19243 13
      vertex -0.421607 2.21015 13
      vertex -0.204069 3.24359 13
    endloop
  endfacet
  facet normal 0 0 1
    outer loop
      vertex -0.608989 3.19243 13
      vertex -0.695288 2.13988 13
      vertex -0.421607 2.21015 13
    endloop
  endfacet
  facet normal -0 0 1
    outer loop
      vertex -1.0043 3.09093 13
      vertex -0.695288 2.13988 13
      vertex -0.608989 3.19243 13
    endloop
  endfacet
  facet normal 0 0 1
    outer loop
      vertex -0.695288 2.13988 13
      vertex -1.0043 3.09093 13
      vertex -0.958003 2.03586 13
    endloop
  endfacet
  facet normal -0 0 1
    outer loop
      vertex -1.38378 2.94069 13
      vertex -0.958003 2.03586 13
      vertex -1.0043 3.09093 13
    endloop
  endfacet
  facet normal 0 0 1
    outer loop
      vertex -0.958003 2.03586 13
      vertex -1.38378 2.94069 13
      vertex -1.20561 1.89974 13
    endloop
  endfacet
  facet normal -0 0 1
    outer loop
      vertex -1.74144 2.74407 13
      vertex -1.20561 1.89974 13
      vertex -1.38378 2.94069 13
    endloop
  endfacet
  facet normal 0 0 1
    outer loop
      vertex -1.20561 1.89974 13
      vertex -1.74144 2.74407 13
      vertex -1.4342 1.73365 13
    endloop
  endfacet
  facet normal -0 0 1
    outer loop
      vertex -2.07163 2.50417 13
      vertex -1.4342 1.73365 13
      vertex -1.74144 2.74407 13
    endloop
  endfacet
  facet normal 0 0 1
    outer loop
      vertex -1.4342 1.73365 13
      vertex -2.07163 2.50417 13
      vertex -1.64018 1.54023 13
    endloop
  endfacet
  facet normal -0 0 1
    outer loop
      vertex -2.36915 2.22478 13
      vertex -1.64018 1.54023 13
      vertex -2.07163 2.50417 13
    endloop
  endfacet
  facet normal 0 0 1
    outer loop
      vertex -1.64018 1.54023 13
      vertex -2.36915 2.22478 13
      vertex -1.82029 1.32252 13
    endloop
  endfacet
  facet normal -0 0 1
    outer loop
      vertex -2.6293 1.9103 13
      vertex -1.82029 1.32252 13
      vertex -2.36915 2.22478 13
    endloop
  endfacet
  facet normal 0 0 1
    outer loop
      vertex -1.82029 1.32252 13
      vertex -2.6293 1.9103 13
      vertex -1.97169 1.08395 13
    endloop
  endfacet
  facet normal -0 0 1
    outer loop
      vertex -2.848 1.5657 13
      vertex -1.97169 1.08395 13
      vertex -2.6293 1.9103 13
    endloop
  endfacet
  facet normal -0 0 1
    outer loop
      vertex -3.02177 1.1964 13
      vertex -2.092 0.828279 13
      vertex -2.848 1.5657 13
    endloop
  endfacet
  facet normal 0 0 1
    outer loop
      vertex -1.97169 1.08395 13
      vertex -2.848 1.5657 13
      vertex -2.092 0.828279 13
    endloop
  endfacet
  facet normal 0 0 1
    outer loop
      vertex 3.02177 -1.1964 13
      vertex 2.092 -0.828279 13
      vertex 2.848 -1.5657 13
    endloop
  endfacet
  facet normal -0 0 1
    outer loop
      vertex 1.97169 -1.08395 13
      vertex 2.848 -1.5657 13
      vertex 2.092 -0.828279 13
    endloop
  endfacet
  facet normal 0 0 1
    outer loop
      vertex 2.848 -1.5657 13
      vertex 1.97169 -1.08395 13
      vertex 2.6293 -1.9103 13
    endloop
  endfacet
  facet normal -0 0 1
    outer loop
      vertex 1.82029 -1.32252 13
      vertex 2.6293 -1.9103 13
      vertex 1.97169 -1.08395 13
    endloop
  endfacet
  facet normal 0 0 1
    outer loop
      vertex 2.6293 -1.9103 13
      vertex 1.82029 -1.32252 13
      vertex 2.36915 -2.22478 13
    endloop
  endfacet
  facet normal -0 0 1
    outer loop
      vertex 1.64018 -1.54023 13
      vertex 2.36915 -2.22478 13
      vertex 1.82029 -1.32252 13
    endloop
  endfacet
  facet normal 0 0 1
    outer loop
      vertex 2.36915 -2.22478 13
      vertex 1.64018 -1.54023 13
      vertex 2.07163 -2.50417 13
    endloop
  endfacet
  facet normal -0 0 1
    outer loop
      vertex 1.4342 -1.73365 13
      vertex 2.07163 -2.50417 13
      vertex 1.64018 -1.54023 13
    endloop
  endfacet
  facet normal 0 0 1
    outer loop
      vertex 2.07163 -2.50417 13
      vertex 1.4342 -1.73365 13
      vertex 1.74144 -2.74407 13
    endloop
  endfacet
  facet normal -0 0 1
    outer loop
      vertex 1.20561 -1.89974 13
      vertex 1.74144 -2.74407 13
      vertex 1.4342 -1.73365 13
    endloop
  endfacet
  facet normal 0 0 1
    outer loop
      vertex 1.74144 -2.74407 13
      vertex 1.20561 -1.89974 13
      vertex 1.38378 -2.94069 13
    endloop
  endfacet
  facet normal -0 0 1
    outer loop
      vertex 0.958003 -2.03586 13
      vertex 1.38378 -2.94069 13
      vertex 1.20561 -1.89974 13
    endloop
  endfacet
  facet normal 0 0 1
    outer loop
      vertex 1.38378 -2.94069 13
      vertex 0.958003 -2.03586 13
      vertex 1.0043 -3.09093 13
    endloop
  endfacet
  facet normal -0 0 1
    outer loop
      vertex 0.695288 -2.13988 13
      vertex 1.0043 -3.09093 13
      vertex 0.958003 -2.03586 13
    endloop
  endfacet
  facet normal 0 0 1
    outer loop
      vertex 0.695288 -2.13988 13
      vertex 0.608989 -3.19243 13
      vertex 1.0043 -3.09093 13
    endloop
  endfacet
  facet normal -0 0 1
    outer loop
      vertex 0.421607 -2.21015 13
      vertex 0.608989 -3.19243 13
      vertex 0.695288 -2.13988 13
    endloop
  endfacet
  facet normal 0 0 1
    outer loop
      vertex 0.421607 -2.21015 13
      vertex 0.204069 -3.24359 13
      vertex 0.608989 -3.19243 13
    endloop
  endfacet
  facet normal -0 0 1
    outer loop
      vertex 0.141278 -2.24556 13
      vertex 0.204069 -3.24359 13
      vertex 0.421607 -2.21015 13
    endloop
  endfacet
  facet normal -0 0 1
    outer loop
      vertex -0.141278 -2.24556 13
      vertex 0.204069 -3.24359 13
      vertex 0.141278 -2.24556 13
    endloop
  endfacet
  facet normal 0 0 1
    outer loop
      vertex -0.141278 -2.24556 13
      vertex -0.204069 -3.24359 13
      vertex 0.204069 -3.24359 13
    endloop
  endfacet
  facet normal 0 0 1
    outer loop
      vertex -0.421607 -2.21015 13
      vertex -0.204069 -3.24359 13
      vertex -0.141278 -2.24556 13
    endloop
  endfacet
  facet normal 0 0 1
    outer loop
      vertex -0.421607 -2.21015 13
      vertex -0.608989 -3.19243 13
      vertex -0.204069 -3.24359 13
    endloop
  endfacet
  facet normal 0 0 1
    outer loop
      vertex -0.695288 -2.13988 13
      vertex -0.608989 -3.19243 13
      vertex -0.421607 -2.21015 13
    endloop
  endfacet
  facet normal 0 0 1
    outer loop
      vertex -1.0043 -3.09093 13
      vertex -0.695288 -2.13988 13
      vertex -0.958003 -2.03586 13
    endloop
  endfacet
  facet normal 0 0 1
    outer loop
      vertex -0.695288 -2.13988 13
      vertex -1.0043 -3.09093 13
      vertex -0.608989 -3.19243 13
    endloop
  endfacet
  facet normal 0 0 1
    outer loop
      vertex -1.38378 -2.94069 13
      vertex -0.958003 -2.03586 13
      vertex -1.20561 -1.89974 13
    endloop
  endfacet
  facet normal 0 0 1
    outer loop
      vertex -0.958003 -2.03586 13
      vertex -1.38378 -2.94069 13
      vertex -1.0043 -3.09093 13
    endloop
  endfacet
  facet normal 0 0 1
    outer loop
      vertex -1.74144 -2.74407 13
      vertex -1.20561 -1.89974 13
      vertex -1.4342 -1.73365 13
    endloop
  endfacet
  facet normal 0 0 1
    outer loop
      vertex -2.07163 -2.50417 13
      vertex -1.4342 -1.73365 13
      vertex -1.64018 -1.54023 13
    endloop
  endfacet
  facet normal 0 0 1
    outer loop
      vertex -1.20561 -1.89974 13
      vertex -1.74144 -2.74407 13
      vertex -1.38378 -2.94069 13
    endloop
  endfacet
  facet normal 0 0 1
    outer loop
      vertex -2.36915 -2.22478 13
      vertex -1.64018 -1.54023 13
      vertex -1.82029 -1.32252 13
    endloop
  endfacet
  facet normal 0 0 1
    outer loop
      vertex -2.6293 -1.9103 13
      vertex -1.82029 -1.32252 13
      vertex -1.97169 -1.08395 13
    endloop
  endfacet
  facet normal 0 0 1
    outer loop
      vertex -1.4342 -1.73365 13
      vertex -2.07163 -2.50417 13
      vertex -1.74144 -2.74407 13
    endloop
  endfacet
  facet normal 0 0 1
    outer loop
      vertex -2.848 -1.5657 13
      vertex -1.97169 -1.08395 13
      vertex -2.092 -0.828279 13
    endloop
  endfacet
  facet normal 0 0 1
    outer loop
      vertex -3.02177 -1.1964 13
      vertex -2.092 -0.828279 13
      vertex -2.17931 -0.559552 13
    endloop
  endfacet
  facet normal 0 0 1
    outer loop
      vertex -3.14789 -0.808242 13
      vertex -2.17931 -0.559552 13
      vertex -2.23226 -0.282 13
    endloop
  endfacet
  facet normal 0 0 1
    outer loop
      vertex -1.64018 -1.54023 13
      vertex -2.36915 -2.22478 13
      vertex -2.07163 -2.50417 13
    endloop
  endfacet
  facet normal 0 0 1
    outer loop
      vertex -3.22437 -0.407332 13
      vertex -2.23226 -0.282 13
      vertex -2.25 0 13
    endloop
  endfacet
  facet normal 0 0 1
    outer loop
      vertex -2.092 0.828279 13
      vertex -3.02177 1.1964 13
      vertex -2.17931 0.559552 13
    endloop
  endfacet
  facet normal -0 0 1
    outer loop
      vertex -3.14789 0.808242 13
      vertex -2.17931 0.559552 13
      vertex -3.02177 1.1964 13
    endloop
  endfacet
  facet normal 0 0 1
    outer loop
      vertex -1.82029 -1.32252 13
      vertex -2.6293 -1.9103 13
      vertex -2.36915 -2.22478 13
    endloop
  endfacet
  facet normal 0 0 1
    outer loop
      vertex -2.17931 0.559552 13
      vertex -3.14789 0.808242 13
      vertex -2.23226 0.282 13
    endloop
  endfacet
  facet normal 0 0 1
    outer loop
      vertex -1.97169 -1.08395 13
      vertex -2.848 -1.5657 13
      vertex -2.6293 -1.9103 13
    endloop
  endfacet
  facet normal -0 0 1
    outer loop
      vertex -3.22437 0.407332 13
      vertex -2.23226 0.282 13
      vertex -3.14789 0.808242 13
    endloop
  endfacet
  facet normal 0 0 1
    outer loop
      vertex -2.092 -0.828279 13
      vertex -3.02177 -1.1964 13
      vertex -2.848 -1.5657 13
    endloop
  endfacet
  facet normal 0 0 1
    outer loop
      vertex -2.23226 0.282 13
      vertex -3.22437 0.407332 13
      vertex -2.25 0 13
    endloop
  endfacet
  facet normal 0 0 1
    outer loop
      vertex -2.17931 -0.559552 13
      vertex -3.14789 -0.808242 13
      vertex -3.02177 -1.1964 13
    endloop
  endfacet
  facet normal 0 0 1
    outer loop
      vertex -3.25 0 13
      vertex -2.25 0 13
      vertex -3.22437 0.407332 13
    endloop
  endfacet
  facet normal 0 0 1
    outer loop
      vertex -2.23226 -0.282 13
      vertex -3.22437 -0.407332 13
      vertex -3.14789 -0.808242 13
    endloop
  endfacet
  facet normal 0 0 1
    outer loop
      vertex -2.25 0 13
      vertex -3.25 0 13
      vertex -3.22437 -0.407332 13
    endloop
  endfacet
  facet normal -0.982285 -0.187395 0
    outer loop
      vertex 2.23226 0.282 0
      vertex 2.17931 0.559552 13
      vertex 2.17931 0.559552 0
    endloop
  endfacet
  facet normal -0.982285 -0.187395 0
    outer loop
      vertex 2.17931 0.559552 13
      vertex 2.23226 0.282 0
      vertex 2.23226 0.282 13
    endloop
  endfacet
  facet normal -0.998027 -0.0627837 0
    outer loop
      vertex 2.25 0 0
      vertex 2.23226 0.282 13
      vertex 2.23226 0.282 0
    endloop
  endfacet
  facet normal -0.998027 -0.0627837 0
    outer loop
      vertex 2.23226 0.282 13
      vertex 2.25 0 0
      vertex 2.25 0 13
    endloop
  endfacet
  facet normal 0.684532 -0.728983 0
    outer loop
      vertex -1.64018 1.54023 0
      vertex -1.4342 1.73365 13
      vertex -1.64018 1.54023 13
    endloop
  endfacet
  facet normal 0.684532 -0.728983 0
    outer loop
      vertex -1.4342 1.73365 13
      vertex -1.64018 1.54023 0
      vertex -1.4342 1.73365 0
    endloop
  endfacet
  facet normal 0.248692 -0.968583 0
    outer loop
      vertex -0.695288 2.13988 0
      vertex -0.421607 2.21015 13
      vertex -0.695288 2.13988 13
    endloop
  endfacet
  facet normal 0.248692 -0.968583 0
    outer loop
      vertex -0.421607 2.21015 13
      vertex -0.695288 2.13988 0
      vertex -0.421607 2.21015 0
    endloop
  endfacet
  facet normal -0.684532 -0.728983 0
    outer loop
      vertex 1.4342 1.73365 0
      vertex 1.64018 1.54023 13
      vertex 1.4342 1.73365 13
    endloop
  endfacet
  facet normal -0.684532 -0.728983 -0
    outer loop
      vertex 1.64018 1.54023 13
      vertex 1.4342 1.73365 0
      vertex 1.64018 1.54023 0
    endloop
  endfacet
  facet normal -0.12532 0.992116 0
    outer loop
      vertex 0.421607 -2.21015 0
      vertex 0.141278 -2.24556 13
      vertex 0.421607 -2.21015 13
    endloop
  endfacet
  facet normal -0.12532 0.992116 0
    outer loop
      vertex 0.141278 -2.24556 13
      vertex 0.421607 -2.21015 0
      vertex 0.141278 -2.24556 0
    endloop
  endfacet
  facet normal -0.998027 0.0627837 0
    outer loop
      vertex 2.23226 -0.282 0
      vertex 2.25 0 13
      vertex 2.25 0 0
    endloop
  endfacet
  facet normal -0.998027 0.0627837 0
    outer loop
      vertex 2.25 0 13
      vertex 2.23226 -0.282 0
      vertex 2.23226 -0.282 13
    endloop
  endfacet
  facet normal -0.481745 0.876311 0
    outer loop
      vertex 1.20561 -1.89974 0
      vertex 0.958003 -2.03586 13
      vertex 1.20561 -1.89974 13
    endloop
  endfacet
  facet normal -0.481745 0.876311 0
    outer loop
      vertex 0.958003 -2.03586 13
      vertex 1.20561 -1.89974 0
      vertex 0.958003 -2.03586 0
    endloop
  endfacet
  facet normal -0.904827 0.42578 0
    outer loop
      vertex 1.97169 -1.08395 0
      vertex 2.092 -0.828279 13
      vertex 2.092 -0.828279 0
    endloop
  endfacet
  facet normal -0.904827 0.42578 0
    outer loop
      vertex 2.092 -0.828279 13
      vertex 1.97169 -1.08395 0
      vertex 1.97169 -1.08395 13
    endloop
  endfacet
  facet normal -0.12532 -0.992116 0
    outer loop
      vertex 0.141278 2.24556 0
      vertex 0.421607 2.21015 13
      vertex 0.141278 2.24556 13
    endloop
  endfacet
  facet normal -0.12532 -0.992116 -0
    outer loop
      vertex 0.421607 2.21015 13
      vertex 0.141278 2.24556 0
      vertex 0.421607 2.21015 0
    endloop
  endfacet
  facet normal -0.904827 -0.42578 0
    outer loop
      vertex 2.092 0.828279 0
      vertex 1.97169 1.08395 13
      vertex 1.97169 1.08395 0
    endloop
  endfacet
  facet normal -0.904827 -0.42578 0
    outer loop
      vertex 1.97169 1.08395 13
      vertex 2.092 0.828279 0
      vertex 2.092 0.828279 13
    endloop
  endfacet
  facet normal 0.481745 -0.876311 0
    outer loop
      vertex -1.20561 1.89974 0
      vertex -0.958003 2.03586 13
      vertex -1.20561 1.89974 13
    endloop
  endfacet
  facet normal 0.481745 -0.876311 0
    outer loop
      vertex -0.958003 2.03586 13
      vertex -1.20561 1.89974 0
      vertex -0.958003 2.03586 0
    endloop
  endfacet
  facet normal -0.84433 0.535824 0
    outer loop
      vertex 1.82029 -1.32252 0
      vertex 1.97169 -1.08395 13
      vertex 1.97169 -1.08395 0
    endloop
  endfacet
  facet normal -0.84433 0.535824 0
    outer loop
      vertex 1.97169 -1.08395 13
      vertex 1.82029 -1.32252 0
      vertex 1.82029 -1.32252 13
    endloop
  endfacet
  facet normal 0.770505 0.637434 0
    outer loop
      vertex -1.64018 -1.54023 13
      vertex -1.82029 -1.32252 0
      vertex -1.82029 -1.32252 13
    endloop
  endfacet
  facet normal 0.770505 0.637434 0
    outer loop
      vertex -1.82029 -1.32252 0
      vertex -1.64018 -1.54023 13
      vertex -1.64018 -1.54023 0
    endloop
  endfacet
  facet normal 0.770505 -0.637434 0
    outer loop
      vertex -1.82029 1.32252 13
      vertex -1.64018 1.54023 0
      vertex -1.64018 1.54023 13
    endloop
  endfacet
  facet normal 0.770505 -0.637434 0
    outer loop
      vertex -1.64018 1.54023 0
      vertex -1.82029 1.32252 13
      vertex -1.82029 1.32252 0
    endloop
  endfacet
  facet normal -0.248692 -0.968583 0
    outer loop
      vertex 0.421607 2.21015 0
      vertex 0.695288 2.13988 13
      vertex 0.421607 2.21015 13
    endloop
  endfacet
  facet normal -0.248692 -0.968583 -0
    outer loop
      vertex 0.695288 2.13988 13
      vertex 0.421607 2.21015 0
      vertex 0.695288 2.13988 0
    endloop
  endfacet
  facet normal -0.368136 0.929772 0
    outer loop
      vertex 0.958003 -2.03586 0
      vertex 0.695288 -2.13988 13
      vertex 0.958003 -2.03586 13
    endloop
  endfacet
  facet normal -0.368136 0.929772 0
    outer loop
      vertex 0.695288 -2.13988 13
      vertex 0.958003 -2.03586 0
      vertex 0.695288 -2.13988 0
    endloop
  endfacet
  facet normal 0.951061 0.309002 0
    outer loop
      vertex -2.092 -0.828279 13
      vertex -2.17931 -0.559552 0
      vertex -2.17931 -0.559552 13
    endloop
  endfacet
  facet normal 0.951061 0.309002 0
    outer loop
      vertex -2.17931 -0.559552 0
      vertex -2.092 -0.828279 13
      vertex -2.092 -0.828279 0
    endloop
  endfacet
  facet normal 0.684532 0.728983 -0
    outer loop
      vertex -1.4342 -1.73365 0
      vertex -1.64018 -1.54023 13
      vertex -1.4342 -1.73365 13
    endloop
  endfacet
  facet normal 0.684532 0.728983 0
    outer loop
      vertex -1.64018 -1.54023 13
      vertex -1.4342 -1.73365 0
      vertex -1.64018 -1.54023 0
    endloop
  endfacet
  facet normal 0.248692 0.968583 -0
    outer loop
      vertex -0.421607 -2.21015 0
      vertex -0.695288 -2.13988 13
      vertex -0.421607 -2.21015 13
    endloop
  endfacet
  facet normal 0.248692 0.968583 0
    outer loop
      vertex -0.695288 -2.13988 13
      vertex -0.421607 -2.21015 0
      vertex -0.695288 -2.13988 0
    endloop
  endfacet
  facet normal 0.368136 0.929772 -0
    outer loop
      vertex -0.695288 -2.13988 0
      vertex -0.958003 -2.03586 13
      vertex -0.695288 -2.13988 13
    endloop
  endfacet
  facet normal 0.368136 0.929772 0
    outer loop
      vertex -0.958003 -2.03586 13
      vertex -0.695288 -2.13988 0
      vertex -0.958003 -2.03586 0
    endloop
  endfacet
  facet normal -0.84433 -0.535824 0
    outer loop
      vertex 1.97169 1.08395 0
      vertex 1.82029 1.32252 13
      vertex 1.82029 1.32252 0
    endloop
  endfacet
  facet normal -0.84433 -0.535824 0
    outer loop
      vertex 1.82029 1.32252 13
      vertex 1.97169 1.08395 0
      vertex 1.97169 1.08395 13
    endloop
  endfacet
  facet normal -0.587808 0.809001 0
    outer loop
      vertex 1.4342 -1.73365 0
      vertex 1.20561 -1.89974 13
      vertex 1.4342 -1.73365 13
    endloop
  endfacet
  facet normal -0.587808 0.809001 0
    outer loop
      vertex 1.20561 -1.89974 13
      vertex 1.4342 -1.73365 0
      vertex 1.20561 -1.89974 0
    endloop
  endfacet
  facet normal 0.982285 0.187395 0
    outer loop
      vertex -2.17931 -0.559552 13
      vertex -2.23226 -0.282 0
      vertex -2.23226 -0.282 13
    endloop
  endfacet
  facet normal 0.982285 0.187395 0
    outer loop
      vertex -2.23226 -0.282 0
      vertex -2.17931 -0.559552 13
      vertex -2.17931 -0.559552 0
    endloop
  endfacet
  facet normal -0.481745 -0.876311 0
    outer loop
      vertex 0.958003 2.03586 0
      vertex 1.20561 1.89974 13
      vertex 0.958003 2.03586 13
    endloop
  endfacet
  facet normal -0.481745 -0.876311 -0
    outer loop
      vertex 1.20561 1.89974 13
      vertex 0.958003 2.03586 0
      vertex 1.20561 1.89974 0
    endloop
  endfacet
  facet normal -0.951061 -0.309002 0
    outer loop
      vertex 2.17931 0.559552 0
      vertex 2.092 0.828279 13
      vertex 2.092 0.828279 0
    endloop
  endfacet
  facet normal -0.951061 -0.309002 0
    outer loop
      vertex 2.092 0.828279 13
      vertex 2.17931 0.559552 0
      vertex 2.17931 0.559552 13
    endloop
  endfacet
  facet normal -0.587808 -0.809001 0
    outer loop
      vertex 1.20561 1.89974 0
      vertex 1.4342 1.73365 13
      vertex 1.20561 1.89974 13
    endloop
  endfacet
  facet normal -0.587808 -0.809001 -0
    outer loop
      vertex 1.4342 1.73365 13
      vertex 1.20561 1.89974 0
      vertex 1.4342 1.73365 0
    endloop
  endfacet
  facet normal -0.951061 0.309002 0
    outer loop
      vertex 2.092 -0.828279 0
      vertex 2.17931 -0.559552 13
      vertex 2.17931 -0.559552 0
    endloop
  endfacet
  facet normal -0.951061 0.309002 0
    outer loop
      vertex 2.17931 -0.559552 13
      vertex 2.092 -0.828279 0
      vertex 2.092 -0.828279 13
    endloop
  endfacet
  facet normal 0 1 -0
    outer loop
      vertex 0.141278 -2.24556 0
      vertex -0.141278 -2.24556 13
      vertex 0.141278 -2.24556 13
    endloop
  endfacet
  facet normal 0 1 0
    outer loop
      vertex -0.141278 -2.24556 13
      vertex 0.141278 -2.24556 0
      vertex -0.141278 -2.24556 0
    endloop
  endfacet
  facet normal -0.982285 0.187395 0
    outer loop
      vertex 2.17931 -0.559552 0
      vertex 2.23226 -0.282 13
      vertex 2.23226 -0.282 0
    endloop
  endfacet
  facet normal -0.982285 0.187395 0
    outer loop
      vertex 2.23226 -0.282 13
      vertex 2.17931 -0.559552 0
      vertex 2.17931 -0.559552 13
    endloop
  endfacet
  facet normal 0.12532 -0.992116 0
    outer loop
      vertex -0.421607 2.21015 0
      vertex -0.141278 2.24556 13
      vertex -0.421607 2.21015 13
    endloop
  endfacet
  facet normal 0.12532 -0.992116 0
    outer loop
      vertex -0.141278 2.24556 13
      vertex -0.421607 2.21015 0
      vertex -0.141278 2.24556 0
    endloop
  endfacet
  facet normal -0.770505 0.637434 0
    outer loop
      vertex 1.64018 -1.54023 0
      vertex 1.82029 -1.32252 13
      vertex 1.82029 -1.32252 0
    endloop
  endfacet
  facet normal -0.770505 0.637434 0
    outer loop
      vertex 1.82029 -1.32252 13
      vertex 1.64018 -1.54023 0
      vertex 1.64018 -1.54023 13
    endloop
  endfacet
  facet normal 0.998027 -0.0627837 0
    outer loop
      vertex -2.25 0 13
      vertex -2.23226 0.282 0
      vertex -2.23226 0.282 13
    endloop
  endfacet
  facet normal 0.998027 -0.0627837 0
    outer loop
      vertex -2.23226 0.282 0
      vertex -2.25 0 13
      vertex -2.25 0 0
    endloop
  endfacet
  facet normal 0.12532 0.992116 -0
    outer loop
      vertex -0.141278 -2.24556 0
      vertex -0.421607 -2.21015 13
      vertex -0.141278 -2.24556 13
    endloop
  endfacet
  facet normal 0.12532 0.992116 0
    outer loop
      vertex -0.421607 -2.21015 13
      vertex -0.141278 -2.24556 0
      vertex -0.421607 -2.21015 0
    endloop
  endfacet
  facet normal 0.481745 0.876311 -0
    outer loop
      vertex -0.958003 -2.03586 0
      vertex -1.20561 -1.89974 13
      vertex -0.958003 -2.03586 13
    endloop
  endfacet
  facet normal 0.481745 0.876311 0
    outer loop
      vertex -1.20561 -1.89974 13
      vertex -0.958003 -2.03586 0
      vertex -1.20561 -1.89974 0
    endloop
  endfacet
  facet normal 0.904827 0.42578 0
    outer loop
      vertex -1.97169 -1.08395 13
      vertex -2.092 -0.828279 0
      vertex -2.092 -0.828279 13
    endloop
  endfacet
  facet normal 0.904827 0.42578 0
    outer loop
      vertex -2.092 -0.828279 0
      vertex -1.97169 -1.08395 13
      vertex -1.97169 -1.08395 0
    endloop
  endfacet
  facet normal 0.84433 -0.535824 0
    outer loop
      vertex -1.97169 1.08395 13
      vertex -1.82029 1.32252 0
      vertex -1.82029 1.32252 13
    endloop
  endfacet
  facet normal 0.84433 -0.535824 0
    outer loop
      vertex -1.82029 1.32252 0
      vertex -1.97169 1.08395 13
      vertex -1.97169 1.08395 0
    endloop
  endfacet
  facet normal 0.998027 0.0627837 0
    outer loop
      vertex -2.23226 -0.282 13
      vertex -2.25 0 0
      vertex -2.25 0 13
    endloop
  endfacet
  facet normal 0.998027 0.0627837 0
    outer loop
      vertex -2.25 0 0
      vertex -2.23226 -0.282 13
      vertex -2.23226 -0.282 0
    endloop
  endfacet
  facet normal 0.951061 -0.309002 0
    outer loop
      vertex -2.17931 0.559552 13
      vertex -2.092 0.828279 0
      vertex -2.092 0.828279 13
    endloop
  endfacet
  facet normal 0.951061 -0.309002 0
    outer loop
      vertex -2.092 0.828279 0
      vertex -2.17931 0.559552 13
      vertex -2.17931 0.559552 0
    endloop
  endfacet
  facet normal -0.248692 0.968583 0
    outer loop
      vertex 0.695288 -2.13988 0
      vertex 0.421607 -2.21015 13
      vertex 0.695288 -2.13988 13
    endloop
  endfacet
  facet normal -0.248692 0.968583 0
    outer loop
      vertex 0.421607 -2.21015 13
      vertex 0.695288 -2.13988 0
      vertex 0.421607 -2.21015 0
    endloop
  endfacet
  facet normal -0.368136 -0.929772 0
    outer loop
      vertex 0.695288 2.13988 0
      vertex 0.958003 2.03586 13
      vertex 0.695288 2.13988 13
    endloop
  endfacet
  facet normal -0.368136 -0.929772 -0
    outer loop
      vertex 0.958003 2.03586 13
      vertex 0.695288 2.13988 0
      vertex 0.958003 2.03586 0
    endloop
  endfacet
  facet normal -0.770505 -0.637434 0
    outer loop
      vertex 1.82029 1.32252 0
      vertex 1.64018 1.54023 13
      vertex 1.64018 1.54023 0
    endloop
  endfacet
  facet normal -0.770505 -0.637434 0
    outer loop
      vertex 1.64018 1.54023 13
      vertex 1.82029 1.32252 0
      vertex 1.82029 1.32252 13
    endloop
  endfacet
  facet normal 0.587808 -0.809001 0
    outer loop
      vertex -1.4342 1.73365 0
      vertex -1.20561 1.89974 13
      vertex -1.4342 1.73365 13
    endloop
  endfacet
  facet normal 0.587808 -0.809001 0
    outer loop
      vertex -1.20561 1.89974 13
      vertex -1.4342 1.73365 0
      vertex -1.20561 1.89974 0
    endloop
  endfacet
  facet normal 0.368136 -0.929772 0
    outer loop
      vertex -0.958003 2.03586 0
      vertex -0.695288 2.13988 13
      vertex -0.958003 2.03586 13
    endloop
  endfacet
  facet normal 0.368136 -0.929772 0
    outer loop
      vertex -0.695288 2.13988 13
      vertex -0.958003 2.03586 0
      vertex -0.695288 2.13988 0
    endloop
  endfacet
  facet normal 0.982285 -0.187395 0
    outer loop
      vertex -2.23226 0.282 13
      vertex -2.17931 0.559552 0
      vertex -2.17931 0.559552 13
    endloop
  endfacet
  facet normal 0.982285 -0.187395 0
    outer loop
      vertex -2.17931 0.559552 0
      vertex -2.23226 0.282 13
      vertex -2.23226 0.282 0
    endloop
  endfacet
  facet normal 0.587808 0.809001 -0
    outer loop
      vertex -1.20561 -1.89974 0
      vertex -1.4342 -1.73365 13
      vertex -1.20561 -1.89974 13
    endloop
  endfacet
  facet normal 0.587808 0.809001 0
    outer loop
      vertex -1.4342 -1.73365 13
      vertex -1.20561 -1.89974 0
      vertex -1.4342 -1.73365 0
    endloop
  endfacet
  facet normal -0.684532 0.728983 0
    outer loop
      vertex 1.64018 -1.54023 0
      vertex 1.4342 -1.73365 13
      vertex 1.64018 -1.54023 13
    endloop
  endfacet
  facet normal -0.684532 0.728983 0
    outer loop
      vertex 1.4342 -1.73365 13
      vertex 1.64018 -1.54023 0
      vertex 1.4342 -1.73365 0
    endloop
  endfacet
  facet normal 0.904827 -0.42578 0
    outer loop
      vertex -2.092 0.828279 13
      vertex -1.97169 1.08395 0
      vertex -1.97169 1.08395 13
    endloop
  endfacet
  facet normal 0.904827 -0.42578 0
    outer loop
      vertex -1.97169 1.08395 0
      vertex -2.092 0.828279 13
      vertex -2.092 0.828279 0
    endloop
  endfacet
  facet normal 0 -1 0
    outer loop
      vertex -0.141278 2.24556 0
      vertex 0.141278 2.24556 13
      vertex -0.141278 2.24556 13
    endloop
  endfacet
  facet normal 0 -1 -0
    outer loop
      vertex 0.141278 2.24556 13
      vertex -0.141278 2.24556 0
      vertex 0.141278 2.24556 0
    endloop
  endfacet
  facet normal 0.84433 0.535824 0
    outer loop
      vertex -1.82029 -1.32252 13
      vertex -1.97169 -1.08395 0
      vertex -1.97169 -1.08395 13
    endloop
  endfacet
  facet normal 0.84433 0.535824 0
    outer loop
      vertex -1.97169 -1.08395 0
      vertex -1.82029 -1.32252 13
      vertex -1.82029 -1.32252 0
    endloop
  endfacet
endsolid OpenSCAD_Model
