solid OpenSCAD_Model
  facet normal 0.248699 -0.968581 0
    outer loop
      vertex 0.468452 -2.45572 0
      vertex 0.772542 -2.37764 12
      vertex 0.468452 -2.45572 12
    endloop
  endfacet
  facet normal 0.248699 -0.968581 0
    outer loop
      vertex 0.772542 -2.37764 12
      vertex 0.468452 -2.45572 0
      vertex 0.772542 -2.37764 0
    endloop
  endfacet
  facet normal 0.982287 0.187385 0
    outer loop
      vertex 2.48029 0.313333 12
      vertex 2.42146 0.621724 0
      vertex 2.42146 0.621724 12
    endloop
  endfacet
  facet normal 0.982287 0.187385 0
    outer loop
      vertex 2.42146 0.621724 0
      vertex 2.48029 0.313333 12
      vertex 2.48029 0.313333 0
    endloop
  endfacet
  facet normal 0.998027 0.0627802 0
    outer loop
      vertex 2.5 0 12
      vertex 2.48029 0.313333 0
      vertex 2.48029 0.313333 12
    endloop
  endfacet
  facet normal 0.998027 0.0627802 0
    outer loop
      vertex 2.48029 0.313333 0
      vertex 2.5 0 12
      vertex 2.5 0 0
    endloop
  endfacet
  facet normal 0.951054 0.309026 0
    outer loop
      vertex 2.42146 0.621724 12
      vertex 2.32444 0.920311 0
      vertex 2.32444 0.920311 12
    endloop
  endfacet
  facet normal 0.951054 0.309026 0
    outer loop
      vertex 2.32444 0.920311 0
      vertex 2.42146 0.621724 12
      vertex 2.42146 0.621724 0
    endloop
  endfacet
  facet normal 0.368112 0.929781 -0
    outer loop
      vertex 1.06445 2.26207 0
      vertex 0.772542 2.37764 12
      vertex 1.06445 2.26207 12
    endloop
  endfacet
  facet normal 0.368112 0.929781 0
    outer loop
      vertex 0.772542 2.37764 12
      vertex 1.06445 2.26207 0
      vertex 0.772542 2.37764 0
    endloop
  endfacet
  facet normal -0.951054 0.309026 0
    outer loop
      vertex -2.42146 0.621724 0
      vertex -2.32444 0.920311 12
      vertex -2.32444 0.920311 0
    endloop
  endfacet
  facet normal -0.951054 0.309026 0
    outer loop
      vertex -2.32444 0.920311 12
      vertex -2.42146 0.621724 0
      vertex -2.42146 0.621724 12
    endloop
  endfacet
  facet normal -0.770522 -0.637414 0
    outer loop
      vertex -1.82242 -1.71137 0
      vertex -2.02254 -1.46946 12
      vertex -2.02254 -1.46946 0
    endloop
  endfacet
  facet normal -0.770522 -0.637414 0
    outer loop
      vertex -2.02254 -1.46946 12
      vertex -1.82242 -1.71137 0
      vertex -1.82242 -1.71137 12
    endloop
  endfacet
  facet normal 0.998027 -0.0627802 0
    outer loop
      vertex 2.48029 -0.313333 12
      vertex 2.5 0 0
      vertex 2.5 0 12
    endloop
  endfacet
  facet normal 0.998027 -0.0627802 0
    outer loop
      vertex 2.5 0 0
      vertex 2.48029 -0.313333 12
      vertex 2.48029 -0.313333 0
    endloop
  endfacet
  facet normal 0.90483 0.425772 0
    outer loop
      vertex 2.32444 0.920311 12
      vertex 2.19077 1.20438 0
      vertex 2.19077 1.20438 12
    endloop
  endfacet
  facet normal 0.90483 0.425772 0
    outer loop
      vertex 2.19077 1.20438 0
      vertex 2.32444 0.920311 12
      vertex 2.32444 0.920311 0
    endloop
  endfacet
  facet normal -0.125338 0.992114 0
    outer loop
      vertex -0.156976 2.49507 0
      vertex -0.468452 2.45572 12
      vertex -0.156976 2.49507 12
    endloop
  endfacet
  facet normal -0.125338 0.992114 0
    outer loop
      vertex -0.468452 2.45572 12
      vertex -0.156976 2.49507 0
      vertex -0.468452 2.45572 0
    endloop
  endfacet
  facet normal 0.125338 0.992114 -0
    outer loop
      vertex 0.468452 2.45572 0
      vertex 0.156976 2.49507 12
      vertex 0.468452 2.45572 12
    endloop
  endfacet
  facet normal 0.125338 0.992114 0
    outer loop
      vertex 0.156976 2.49507 12
      vertex 0.468452 2.45572 0
      vertex 0.156976 2.49507 0
    endloop
  endfacet
  facet normal 0.587797 -0.809009 0
    outer loop
      vertex 1.33957 -2.11082 0
      vertex 1.59356 -1.92628 12
      vertex 1.33957 -2.11082 12
    endloop
  endfacet
  facet normal 0.587797 -0.809009 0
    outer loop
      vertex 1.59356 -1.92628 12
      vertex 1.33957 -2.11082 0
      vertex 1.59356 -1.92628 0
    endloop
  endfacet
  facet normal -0.587797 -0.809009 0
    outer loop
      vertex -1.59356 -1.92628 0
      vertex -1.33957 -2.11082 12
      vertex -1.59356 -1.92628 12
    endloop
  endfacet
  facet normal -0.587797 -0.809009 -0
    outer loop
      vertex -1.33957 -2.11082 12
      vertex -1.59356 -1.92628 0
      vertex -1.33957 -2.11082 0
    endloop
  endfacet
  facet normal -0.684541 0.728975 0
    outer loop
      vertex -1.59356 1.92628 0
      vertex -1.82242 1.71137 12
      vertex -1.59356 1.92628 12
    endloop
  endfacet
  facet normal -0.684541 0.728975 0
    outer loop
      vertex -1.82242 1.71137 12
      vertex -1.59356 1.92628 0
      vertex -1.82242 1.71137 0
    endloop
  endfacet
  facet normal 0.982287 -0.187385 0
    outer loop
      vertex 2.42146 -0.621724 12
      vertex 2.48029 -0.313333 0
      vertex 2.48029 -0.313333 12
    endloop
  endfacet
  facet normal 0.982287 -0.187385 0
    outer loop
      vertex 2.48029 -0.313333 0
      vertex 2.42146 -0.621724 12
      vertex 2.42146 -0.621724 0
    endloop
  endfacet
  facet normal 0.368112 -0.929781 0
    outer loop
      vertex 0.772542 -2.37764 0
      vertex 1.06445 -2.26207 12
      vertex 0.772542 -2.37764 12
    endloop
  endfacet
  facet normal 0.368112 -0.929781 0
    outer loop
      vertex 1.06445 -2.26207 12
      vertex 0.772542 -2.37764 0
      vertex 1.06445 -2.26207 0
    endloop
  endfacet
  facet normal 0.684541 -0.728975 0
    outer loop
      vertex 1.59356 -1.92628 0
      vertex 1.82242 -1.71137 12
      vertex 1.59356 -1.92628 12
    endloop
  endfacet
  facet normal 0.684541 -0.728975 0
    outer loop
      vertex 1.82242 -1.71137 12
      vertex 1.59356 -1.92628 0
      vertex 1.82242 -1.71137 0
    endloop
  endfacet
  facet normal 0.587797 0.809009 -0
    outer loop
      vertex 1.59356 1.92628 0
      vertex 1.33957 2.11082 12
      vertex 1.59356 1.92628 12
    endloop
  endfacet
  facet normal 0.587797 0.809009 0
    outer loop
      vertex 1.33957 2.11082 12
      vertex 1.59356 1.92628 0
      vertex 1.33957 2.11082 0
    endloop
  endfacet
  facet normal -0.368112 0.929781 0
    outer loop
      vertex -0.772542 2.37764 0
      vertex -1.06445 2.26207 12
      vertex -0.772542 2.37764 12
    endloop
  endfacet
  facet normal -0.368112 0.929781 0
    outer loop
      vertex -1.06445 2.26207 12
      vertex -0.772542 2.37764 0
      vertex -1.06445 2.26207 0
    endloop
  endfacet
  facet normal 0.844321 0.535838 0
    outer loop
      vertex 2.19077 1.20438 12
      vertex 2.02254 1.46946 0
      vertex 2.02254 1.46946 12
    endloop
  endfacet
  facet normal 0.844321 0.535838 0
    outer loop
      vertex 2.02254 1.46946 0
      vertex 2.19077 1.20438 12
      vertex 2.19077 1.20438 0
    endloop
  endfacet
  facet normal -0.248699 0.968581 0
    outer loop
      vertex -0.468452 2.45572 0
      vertex -0.772542 2.37764 12
      vertex -0.468452 2.45572 12
    endloop
  endfacet
  facet normal -0.248699 0.968581 0
    outer loop
      vertex -0.772542 2.37764 12
      vertex -0.468452 2.45572 0
      vertex -0.772542 2.37764 0
    endloop
  endfacet
  facet normal 0.481757 0.876305 -0
    outer loop
      vertex 1.33957 2.11082 0
      vertex 1.06445 2.26207 12
      vertex 1.33957 2.11082 12
    endloop
  endfacet
  facet normal 0.481757 0.876305 0
    outer loop
      vertex 1.06445 2.26207 12
      vertex 1.33957 2.11082 0
      vertex 1.06445 2.26207 0
    endloop
  endfacet
  facet normal -0.248699 -0.968581 0
    outer loop
      vertex -0.772542 -2.37764 0
      vertex -0.468452 -2.45572 12
      vertex -0.772542 -2.37764 12
    endloop
  endfacet
  facet normal -0.248699 -0.968581 -0
    outer loop
      vertex -0.468452 -2.45572 12
      vertex -0.772542 -2.37764 0
      vertex -0.468452 -2.45572 0
    endloop
  endfacet
  facet normal -0.587797 0.809009 0
    outer loop
      vertex -1.33957 2.11082 0
      vertex -1.59356 1.92628 12
      vertex -1.33957 2.11082 12
    endloop
  endfacet
  facet normal -0.587797 0.809009 0
    outer loop
      vertex -1.59356 1.92628 12
      vertex -1.33957 2.11082 0
      vertex -1.59356 1.92628 0
    endloop
  endfacet
  facet normal 0.125338 -0.992114 0
    outer loop
      vertex 0.156976 -2.49507 0
      vertex 0.468452 -2.45572 12
      vertex 0.156976 -2.49507 12
    endloop
  endfacet
  facet normal 0.125338 -0.992114 0
    outer loop
      vertex 0.468452 -2.45572 12
      vertex 0.156976 -2.49507 0
      vertex 0.468452 -2.45572 0
    endloop
  endfacet
  facet normal 0.684541 0.728975 -0
    outer loop
      vertex 1.82242 1.71137 0
      vertex 1.59356 1.92628 12
      vertex 1.82242 1.71137 12
    endloop
  endfacet
  facet normal 0.684541 0.728975 0
    outer loop
      vertex 1.59356 1.92628 12
      vertex 1.82242 1.71137 0
      vertex 1.59356 1.92628 0
    endloop
  endfacet
  facet normal 0.770522 -0.637414 0
    outer loop
      vertex 1.82242 -1.71137 12
      vertex 2.02254 -1.46946 0
      vertex 2.02254 -1.46946 12
    endloop
  endfacet
  facet normal 0.770522 -0.637414 0
    outer loop
      vertex 2.02254 -1.46946 0
      vertex 1.82242 -1.71137 12
      vertex 1.82242 -1.71137 0
    endloop
  endfacet
  facet normal -0.951054 -0.309026 0
    outer loop
      vertex -2.32444 -0.920311 0
      vertex -2.42146 -0.621724 12
      vertex -2.42146 -0.621724 0
    endloop
  endfacet
  facet normal -0.951054 -0.309026 0
    outer loop
      vertex -2.42146 -0.621724 12
      vertex -2.32444 -0.920311 0
      vertex -2.32444 -0.920311 12
    endloop
  endfacet
  facet normal 0.770522 0.637414 0
    outer loop
      vertex 2.02254 1.46946 12
      vertex 1.82242 1.71137 0
      vertex 1.82242 1.71137 12
    endloop
  endfacet
  facet normal 0.770522 0.637414 0
    outer loop
      vertex 1.82242 1.71137 0
      vertex 2.02254 1.46946 12
      vertex 2.02254 1.46946 0
    endloop
  endfacet
  facet normal 0 0 1
    outer loop
      vertex 1.75 0 12
      vertex 2.5 0 12
      vertex 2.48029 0.313333 12
    endloop
  endfacet
  facet normal 0 0 1
    outer loop
      vertex 1.7362 0.219333 12
      vertex 2.48029 0.313333 12
      vertex 2.42146 0.621724 12
    endloop
  endfacet
  facet normal 0 0 1
    outer loop
      vertex 2.5 0 12
      vertex 1.75 0 12
      vertex 2.48029 -0.313333 12
    endloop
  endfacet
  facet normal 0 0 1
    outer loop
      vertex 1.69502 0.435206 12
      vertex 2.42146 0.621724 12
      vertex 2.32444 0.920311 12
    endloop
  endfacet
  facet normal -0 0 1
    outer loop
      vertex 1.7362 -0.219333 12
      vertex 2.48029 -0.313333 12
      vertex 1.75 0 12
    endloop
  endfacet
  facet normal 0 0 1
    outer loop
      vertex 1.62711 0.644217 12
      vertex 2.32444 0.920311 12
      vertex 2.19077 1.20438 12
    endloop
  endfacet
  facet normal 0 0 1
    outer loop
      vertex 2.48029 -0.313333 12
      vertex 1.7362 -0.219333 12
      vertex 2.42146 -0.621724 12
    endloop
  endfacet
  facet normal 0 0 1
    outer loop
      vertex 1.53354 0.843068 12
      vertex 2.19077 1.20438 12
      vertex 2.02254 1.46946 12
    endloop
  endfacet
  facet normal -0 0 1
    outer loop
      vertex 1.69502 -0.435206 12
      vertex 2.42146 -0.621724 12
      vertex 1.7362 -0.219333 12
    endloop
  endfacet
  facet normal 0 0 1
    outer loop
      vertex 1.41578 1.02862 12
      vertex 2.02254 1.46946 12
      vertex 1.82242 1.71137 12
    endloop
  endfacet
  facet normal 0 0 1
    outer loop
      vertex 2.42146 -0.621724 12
      vertex 1.69502 -0.435206 12
      vertex 2.32444 -0.920311 12
    endloop
  endfacet
  facet normal -0 0 1
    outer loop
      vertex 1.62711 -0.644217 12
      vertex 2.32444 -0.920311 12
      vertex 1.69502 -0.435206 12
    endloop
  endfacet
  facet normal 0 0 1
    outer loop
      vertex 2.48029 0.313333 12
      vertex 1.7362 0.219333 12
      vertex 1.75 0 12
    endloop
  endfacet
  facet normal 0 0 1
    outer loop
      vertex 2.42146 0.621724 12
      vertex 1.69502 0.435206 12
      vertex 1.7362 0.219333 12
    endloop
  endfacet
  facet normal 0 0 1
    outer loop
      vertex 2.32444 0.920311 12
      vertex 1.62711 0.644217 12
      vertex 1.69502 0.435206 12
    endloop
  endfacet
  facet normal 0 0 1
    outer loop
      vertex 1.27569 1.19796 12
      vertex 1.82242 1.71137 12
      vertex 1.59356 1.92628 12
    endloop
  endfacet
  facet normal 0 0 1
    outer loop
      vertex 2.19077 1.20438 12
      vertex 1.53354 0.843068 12
      vertex 1.62711 0.644217 12
    endloop
  endfacet
  facet normal 0 0 1
    outer loop
      vertex 2.02254 1.46946 12
      vertex 1.41578 1.02862 12
      vertex 1.53354 0.843068 12
    endloop
  endfacet
  facet normal 0 0 1
    outer loop
      vertex 1.11549 1.3484 12
      vertex 1.59356 1.92628 12
      vertex 1.33957 2.11082 12
    endloop
  endfacet
  facet normal 0 0 1
    outer loop
      vertex 1.82242 1.71137 12
      vertex 1.27569 1.19796 12
      vertex 1.41578 1.02862 12
    endloop
  endfacet
  facet normal 0 0 1
    outer loop
      vertex 1.59356 1.92628 12
      vertex 1.11549 1.3484 12
      vertex 1.27569 1.19796 12
    endloop
  endfacet
  facet normal 0 0 1
    outer loop
      vertex 0.937696 1.47757 12
      vertex 1.33957 2.11082 12
      vertex 1.06445 2.26207 12
    endloop
  endfacet
  facet normal 0 0 1
    outer loop
      vertex 1.33957 2.11082 12
      vertex 0.937696 1.47757 12
      vertex 1.11549 1.3484 12
    endloop
  endfacet
  facet normal 0 0 1
    outer loop
      vertex 0.745113 1.58345 12
      vertex 1.06445 2.26207 12
      vertex 0.772542 2.37764 12
    endloop
  endfacet
  facet normal 0 0 1
    outer loop
      vertex 1.06445 2.26207 12
      vertex 0.745113 1.58345 12
      vertex 0.937696 1.47757 12
    endloop
  endfacet
  facet normal 0 0 1
    outer loop
      vertex 0.772542 2.37764 12
      vertex 0.540779 1.66435 12
      vertex 0.745113 1.58345 12
    endloop
  endfacet
  facet normal 0 0 1
    outer loop
      vertex 0.468452 2.45572 12
      vertex 0.540779 1.66435 12
      vertex 0.772542 2.37764 12
    endloop
  endfacet
  facet normal 0 0 1
    outer loop
      vertex 0.468452 2.45572 12
      vertex 0.327917 1.719 12
      vertex 0.540779 1.66435 12
    endloop
  endfacet
  facet normal 0 0 1
    outer loop
      vertex 0.156976 2.49507 12
      vertex 0.327917 1.719 12
      vertex 0.468452 2.45572 12
    endloop
  endfacet
  facet normal 0 0 1
    outer loop
      vertex 0.156976 2.49507 12
      vertex 0.109883 1.74655 12
      vertex 0.327917 1.719 12
    endloop
  endfacet
  facet normal 0 0 1
    outer loop
      vertex 0.156976 2.49507 12
      vertex -0.109883 1.74655 12
      vertex 0.109883 1.74655 12
    endloop
  endfacet
  facet normal -0 0 1
    outer loop
      vertex -0.156976 2.49507 12
      vertex -0.109883 1.74655 12
      vertex 0.156976 2.49507 12
    endloop
  endfacet
  facet normal 0 0 1
    outer loop
      vertex -0.156976 2.49507 12
      vertex -0.327917 1.719 12
      vertex -0.109883 1.74655 12
    endloop
  endfacet
  facet normal -0 0 1
    outer loop
      vertex -0.468452 2.45572 12
      vertex -0.327917 1.719 12
      vertex -0.156976 2.49507 12
    endloop
  endfacet
  facet normal 0 0 1
    outer loop
      vertex -0.468452 2.45572 12
      vertex -0.540779 1.66435 12
      vertex -0.327917 1.719 12
    endloop
  endfacet
  facet normal -0 0 1
    outer loop
      vertex -0.772542 2.37764 12
      vertex -0.540779 1.66435 12
      vertex -0.468452 2.45572 12
    endloop
  endfacet
  facet normal 0 0 1
    outer loop
      vertex -0.540779 1.66435 12
      vertex -0.772542 2.37764 12
      vertex -0.745113 1.58345 12
    endloop
  endfacet
  facet normal -0 0 1
    outer loop
      vertex -1.06445 2.26207 12
      vertex -0.745113 1.58345 12
      vertex -0.772542 2.37764 12
    endloop
  endfacet
  facet normal 0 0 1
    outer loop
      vertex -0.745113 1.58345 12
      vertex -1.06445 2.26207 12
      vertex -0.937696 1.47757 12
    endloop
  endfacet
  facet normal -0 0 1
    outer loop
      vertex -1.33957 2.11082 12
      vertex -0.937696 1.47757 12
      vertex -1.06445 2.26207 12
    endloop
  endfacet
  facet normal 0 0 1
    outer loop
      vertex -0.937696 1.47757 12
      vertex -1.33957 2.11082 12
      vertex -1.11549 1.3484 12
    endloop
  endfacet
  facet normal -0 0 1
    outer loop
      vertex -1.59356 1.92628 12
      vertex -1.11549 1.3484 12
      vertex -1.33957 2.11082 12
    endloop
  endfacet
  facet normal 0 0 1
    outer loop
      vertex -1.11549 1.3484 12
      vertex -1.59356 1.92628 12
      vertex -1.27569 1.19796 12
    endloop
  endfacet
  facet normal -0 0 1
    outer loop
      vertex -1.82242 1.71137 12
      vertex -1.27569 1.19796 12
      vertex -1.59356 1.92628 12
    endloop
  endfacet
  facet normal 0 0 1
    outer loop
      vertex -1.27569 1.19796 12
      vertex -1.82242 1.71137 12
      vertex -1.41578 1.02862 12
    endloop
  endfacet
  facet normal -0 0 1
    outer loop
      vertex -2.02254 1.46946 12
      vertex -1.41578 1.02862 12
      vertex -1.82242 1.71137 12
    endloop
  endfacet
  facet normal 0 0 1
    outer loop
      vertex -1.41578 1.02862 12
      vertex -2.02254 1.46946 12
      vertex -1.53354 0.843068 12
    endloop
  endfacet
  facet normal -0 0 1
    outer loop
      vertex -2.19077 1.20438 12
      vertex -1.53354 0.843068 12
      vertex -2.02254 1.46946 12
    endloop
  endfacet
  facet normal -0 0 1
    outer loop
      vertex -2.32444 0.920311 12
      vertex -1.62711 0.644217 12
      vertex -2.19077 1.20438 12
    endloop
  endfacet
  facet normal 0 0 1
    outer loop
      vertex -1.53354 0.843068 12
      vertex -2.19077 1.20438 12
      vertex -1.62711 0.644217 12
    endloop
  endfacet
  facet normal 0 0 1
    outer loop
      vertex 2.32444 -0.920311 12
      vertex 1.62711 -0.644217 12
      vertex 2.19077 -1.20438 12
    endloop
  endfacet
  facet normal -0 0 1
    outer loop
      vertex 1.53354 -0.843068 12
      vertex 2.19077 -1.20438 12
      vertex 1.62711 -0.644217 12
    endloop
  endfacet
  facet normal 0 0 1
    outer loop
      vertex 2.19077 -1.20438 12
      vertex 1.53354 -0.843068 12
      vertex 2.02254 -1.46946 12
    endloop
  endfacet
  facet normal -0 0 1
    outer loop
      vertex 1.41578 -1.02862 12
      vertex 2.02254 -1.46946 12
      vertex 1.53354 -0.843068 12
    endloop
  endfacet
  facet normal 0 0 1
    outer loop
      vertex 2.02254 -1.46946 12
      vertex 1.41578 -1.02862 12
      vertex 1.82242 -1.71137 12
    endloop
  endfacet
  facet normal -0 0 1
    outer loop
      vertex 1.27569 -1.19796 12
      vertex 1.82242 -1.71137 12
      vertex 1.41578 -1.02862 12
    endloop
  endfacet
  facet normal 0 0 1
    outer loop
      vertex 1.82242 -1.71137 12
      vertex 1.27569 -1.19796 12
      vertex 1.59356 -1.92628 12
    endloop
  endfacet
  facet normal -0 0 1
    outer loop
      vertex 1.11549 -1.3484 12
      vertex 1.59356 -1.92628 12
      vertex 1.27569 -1.19796 12
    endloop
  endfacet
  facet normal 0 0 1
    outer loop
      vertex 1.59356 -1.92628 12
      vertex 1.11549 -1.3484 12
      vertex 1.33957 -2.11082 12
    endloop
  endfacet
  facet normal -0 0 1
    outer loop
      vertex 0.937696 -1.47757 12
      vertex 1.33957 -2.11082 12
      vertex 1.11549 -1.3484 12
    endloop
  endfacet
  facet normal 0 0 1
    outer loop
      vertex 1.33957 -2.11082 12
      vertex 0.937696 -1.47757 12
      vertex 1.06445 -2.26207 12
    endloop
  endfacet
  facet normal -0 0 1
    outer loop
      vertex 0.745113 -1.58345 12
      vertex 1.06445 -2.26207 12
      vertex 0.937696 -1.47757 12
    endloop
  endfacet
  facet normal 0 0 1
    outer loop
      vertex 1.06445 -2.26207 12
      vertex 0.745113 -1.58345 12
      vertex 0.772542 -2.37764 12
    endloop
  endfacet
  facet normal -0 0 1
    outer loop
      vertex 0.540779 -1.66435 12
      vertex 0.772542 -2.37764 12
      vertex 0.745113 -1.58345 12
    endloop
  endfacet
  facet normal 0 0 1
    outer loop
      vertex 0.540779 -1.66435 12
      vertex 0.468452 -2.45572 12
      vertex 0.772542 -2.37764 12
    endloop
  endfacet
  facet normal -0 0 1
    outer loop
      vertex 0.327917 -1.719 12
      vertex 0.468452 -2.45572 12
      vertex 0.540779 -1.66435 12
    endloop
  endfacet
  facet normal 0 0 1
    outer loop
      vertex 0.327917 -1.719 12
      vertex 0.156976 -2.49507 12
      vertex 0.468452 -2.45572 12
    endloop
  endfacet
  facet normal -0 0 1
    outer loop
      vertex 0.109883 -1.74655 12
      vertex 0.156976 -2.49507 12
      vertex 0.327917 -1.719 12
    endloop
  endfacet
  facet normal -0 0 1
    outer loop
      vertex -0.109883 -1.74655 12
      vertex 0.156976 -2.49507 12
      vertex 0.109883 -1.74655 12
    endloop
  endfacet
  facet normal 0 0 1
    outer loop
      vertex -0.109883 -1.74655 12
      vertex -0.156976 -2.49507 12
      vertex 0.156976 -2.49507 12
    endloop
  endfacet
  facet normal 0 0 1
    outer loop
      vertex -0.327917 -1.719 12
      vertex -0.156976 -2.49507 12
      vertex -0.109883 -1.74655 12
    endloop
  endfacet
  facet normal 0 0 1
    outer loop
      vertex -0.327917 -1.719 12
      vertex -0.468452 -2.45572 12
      vertex -0.156976 -2.49507 12
    endloop
  endfacet
  facet normal 0 0 1
    outer loop
      vertex -0.540779 -1.66435 12
      vertex -0.468452 -2.45572 12
      vertex -0.327917 -1.719 12
    endloop
  endfacet
  facet normal 0 0 1
    outer loop
      vertex -0.772542 -2.37764 12
      vertex -0.540779 -1.66435 12
      vertex -0.745113 -1.58345 12
    endloop
  endfacet
  facet normal 0 0 1
    outer loop
      vertex -0.540779 -1.66435 12
      vertex -0.772542 -2.37764 12
      vertex -0.468452 -2.45572 12
    endloop
  endfacet
  facet normal 0 0 1
    outer loop
      vertex -1.06445 -2.26207 12
      vertex -0.745113 -1.58345 12
      vertex -0.937696 -1.47757 12
    endloop
  endfacet
  facet normal 0 0 1
    outer loop
      vertex -0.745113 -1.58345 12
      vertex -1.06445 -2.26207 12
      vertex -0.772542 -2.37764 12
    endloop
  endfacet
  facet normal 0 0 1
    outer loop
      vertex -1.33957 -2.11082 12
      vertex -0.937696 -1.47757 12
      vertex -1.11549 -1.3484 12
    endloop
  endfacet
  facet normal 0 0 1
    outer loop
      vertex -1.59356 -1.92628 12
      vertex -1.11549 -1.3484 12
      vertex -1.27569 -1.19796 12
    endloop
  endfacet
  facet normal 0 0 1
    outer loop
      vertex -0.937696 -1.47757 12
      vertex -1.33957 -2.11082 12
      vertex -1.06445 -2.26207 12
    endloop
  endfacet
  facet normal 0 0 1
    outer loop
      vertex -1.82242 -1.71137 12
      vertex -1.27569 -1.19796 12
      vertex -1.41578 -1.02862 12
    endloop
  endfacet
  facet normal 0 0 1
    outer loop
      vertex -2.02254 -1.46946 12
      vertex -1.41578 -1.02862 12
      vertex -1.53354 -0.843068 12
    endloop
  endfacet
  facet normal 0 0 1
    outer loop
      vertex -1.11549 -1.3484 12
      vertex -1.59356 -1.92628 12
      vertex -1.33957 -2.11082 12
    endloop
  endfacet
  facet normal 0 0 1
    outer loop
      vertex -2.19077 -1.20438 12
      vertex -1.53354 -0.843068 12
      vertex -1.62711 -0.644217 12
    endloop
  endfacet
  facet normal 0 0 1
    outer loop
      vertex -2.32444 -0.920311 12
      vertex -1.62711 -0.644217 12
      vertex -1.69502 -0.435206 12
    endloop
  endfacet
  facet normal 0 0 1
    outer loop
      vertex -2.42146 -0.621724 12
      vertex -1.69502 -0.435206 12
      vertex -1.7362 -0.219333 12
    endloop
  endfacet
  facet normal 0 0 1
    outer loop
      vertex -1.27569 -1.19796 12
      vertex -1.82242 -1.71137 12
      vertex -1.59356 -1.92628 12
    endloop
  endfacet
  facet normal 0 0 1
    outer loop
      vertex -2.48029 -0.313333 12
      vertex -1.7362 -0.219333 12
      vertex -1.75 0 12
    endloop
  endfacet
  facet normal 0 0 1
    outer loop
      vertex -1.62711 0.644217 12
      vertex -2.32444 0.920311 12
      vertex -1.69502 0.435206 12
    endloop
  endfacet
  facet normal -0 0 1
    outer loop
      vertex -2.42146 0.621724 12
      vertex -1.69502 0.435206 12
      vertex -2.32444 0.920311 12
    endloop
  endfacet
  facet normal 0 0 1
    outer loop
      vertex -1.41578 -1.02862 12
      vertex -2.02254 -1.46946 12
      vertex -1.82242 -1.71137 12
    endloop
  endfacet
  facet normal 0 0 1
    outer loop
      vertex -1.69502 0.435206 12
      vertex -2.42146 0.621724 12
      vertex -1.7362 0.219333 12
    endloop
  endfacet
  facet normal 0 0 1
    outer loop
      vertex -1.53354 -0.843068 12
      vertex -2.19077 -1.20438 12
      vertex -2.02254 -1.46946 12
    endloop
  endfacet
  facet normal -0 0 1
    outer loop
      vertex -2.48029 0.313333 12
      vertex -1.7362 0.219333 12
      vertex -2.42146 0.621724 12
    endloop
  endfacet
  facet normal 0 0 1
    outer loop
      vertex -1.62711 -0.644217 12
      vertex -2.32444 -0.920311 12
      vertex -2.19077 -1.20438 12
    endloop
  endfacet
  facet normal 0 0 1
    outer loop
      vertex -1.7362 0.219333 12
      vertex -2.48029 0.313333 12
      vertex -1.75 0 12
    endloop
  endfacet
  facet normal 0 0 1
    outer loop
      vertex -1.69502 -0.435206 12
      vertex -2.42146 -0.621724 12
      vertex -2.32444 -0.920311 12
    endloop
  endfacet
  facet normal 0 0 1
    outer loop
      vertex -2.5 0 12
      vertex -1.75 0 12
      vertex -2.48029 0.313333 12
    endloop
  endfacet
  facet normal 0 0 1
    outer loop
      vertex -1.7362 -0.219333 12
      vertex -2.48029 -0.313333 12
      vertex -2.42146 -0.621724 12
    endloop
  endfacet
  facet normal 0 0 1
    outer loop
      vertex -1.75 0 12
      vertex -2.5 0 12
      vertex -2.48029 -0.313333 12
    endloop
  endfacet
  facet normal 0.951054 -0.309026 0
    outer loop
      vertex 2.32444 -0.920311 12
      vertex 2.42146 -0.621724 0
      vertex 2.42146 -0.621724 12
    endloop
  endfacet
  facet normal 0.951054 -0.309026 0
    outer loop
      vertex 2.42146 -0.621724 0
      vertex 2.32444 -0.920311 12
      vertex 2.32444 -0.920311 0
    endloop
  endfacet
  facet normal -0.368112 -0.929781 0
    outer loop
      vertex -1.06445 -2.26207 0
      vertex -0.772542 -2.37764 12
      vertex -1.06445 -2.26207 12
    endloop
  endfacet
  facet normal -0.368112 -0.929781 -0
    outer loop
      vertex -0.772542 -2.37764 12
      vertex -1.06445 -2.26207 0
      vertex -0.772542 -2.37764 0
    endloop
  endfacet
  facet normal 0.844321 -0.535838 0
    outer loop
      vertex 2.02254 -1.46946 12
      vertex 2.19077 -1.20438 0
      vertex 2.19077 -1.20438 12
    endloop
  endfacet
  facet normal 0.844321 -0.535838 0
    outer loop
      vertex 2.19077 -1.20438 0
      vertex 2.02254 -1.46946 12
      vertex 2.02254 -1.46946 0
    endloop
  endfacet
  facet normal -0.481757 -0.876305 0
    outer loop
      vertex -1.33957 -2.11082 0
      vertex -1.06445 -2.26207 12
      vertex -1.33957 -2.11082 12
    endloop
  endfacet
  facet normal -0.481757 -0.876305 -0
    outer loop
      vertex -1.06445 -2.26207 12
      vertex -1.33957 -2.11082 0
      vertex -1.06445 -2.26207 0
    endloop
  endfacet
  facet normal 0.90483 -0.425772 0
    outer loop
      vertex 2.19077 -1.20438 12
      vertex 2.32444 -0.920311 0
      vertex 2.32444 -0.920311 12
    endloop
  endfacet
  facet normal 0.90483 -0.425772 0
    outer loop
      vertex 2.32444 -0.920311 0
      vertex 2.19077 -1.20438 12
      vertex 2.19077 -1.20438 0
    endloop
  endfacet
  facet normal -0.684541 -0.728975 0
    outer loop
      vertex -1.82242 -1.71137 0
      vertex -1.59356 -1.92628 12
      vertex -1.82242 -1.71137 12
    endloop
  endfacet
  facet normal -0.684541 -0.728975 -0
    outer loop
      vertex -1.59356 -1.92628 12
      vertex -1.82242 -1.71137 0
      vertex -1.59356 -1.92628 0
    endloop
  endfacet
  facet normal 0 0 -1
    outer loop
      vertex 1.75 0 0
      vertex 2.5 0 0
      vertex 2.48029 -0.313333 0
    endloop
  endfacet
  facet normal 0 0 -1
    outer loop
      vertex 1.7362 -0.219333 0
      vertex 2.48029 -0.313333 0
      vertex 2.42146 -0.621724 0
    endloop
  endfacet
  facet normal 0 0 -1
    outer loop
      vertex 2.5 0 0
      vertex 1.75 0 0
      vertex 2.48029 0.313333 0
    endloop
  endfacet
  facet normal 0 0 -1
    outer loop
      vertex 1.69502 -0.435206 0
      vertex 2.42146 -0.621724 0
      vertex 2.32444 -0.920311 0
    endloop
  endfacet
  facet normal 0 0 -1
    outer loop
      vertex 1.7362 0.219333 0
      vertex 2.48029 0.313333 0
      vertex 1.75 0 0
    endloop
  endfacet
  facet normal 0 0 -1
    outer loop
      vertex 1.62711 -0.644217 0
      vertex 2.32444 -0.920311 0
      vertex 2.19077 -1.20438 0
    endloop
  endfacet
  facet normal -0 0 -1
    outer loop
      vertex 2.48029 0.313333 0
      vertex 1.7362 0.219333 0
      vertex 2.42146 0.621724 0
    endloop
  endfacet
  facet normal 0 0 -1
    outer loop
      vertex 1.53354 -0.843068 0
      vertex 2.19077 -1.20438 0
      vertex 2.02254 -1.46946 0
    endloop
  endfacet
  facet normal 0 0 -1
    outer loop
      vertex 1.69502 0.435206 0
      vertex 2.42146 0.621724 0
      vertex 1.7362 0.219333 0
    endloop
  endfacet
  facet normal 0 0 -1
    outer loop
      vertex 1.41578 -1.02862 0
      vertex 2.02254 -1.46946 0
      vertex 1.82242 -1.71137 0
    endloop
  endfacet
  facet normal -0 0 -1
    outer loop
      vertex 2.42146 0.621724 0
      vertex 1.69502 0.435206 0
      vertex 2.32444 0.920311 0
    endloop
  endfacet
  facet normal 0 0 -1
    outer loop
      vertex 1.62711 0.644217 0
      vertex 2.32444 0.920311 0
      vertex 1.69502 0.435206 0
    endloop
  endfacet
  facet normal 0 0 -1
    outer loop
      vertex 2.48029 -0.313333 0
      vertex 1.7362 -0.219333 0
      vertex 1.75 0 0
    endloop
  endfacet
  facet normal 0 0 -1
    outer loop
      vertex 2.42146 -0.621724 0
      vertex 1.69502 -0.435206 0
      vertex 1.7362 -0.219333 0
    endloop
  endfacet
  facet normal 0 0 -1
    outer loop
      vertex 2.32444 -0.920311 0
      vertex 1.62711 -0.644217 0
      vertex 1.69502 -0.435206 0
    endloop
  endfacet
  facet normal 0 0 -1
    outer loop
      vertex 1.27569 -1.19796 0
      vertex 1.82242 -1.71137 0
      vertex 1.59356 -1.92628 0
    endloop
  endfacet
  facet normal 0 0 -1
    outer loop
      vertex 2.19077 -1.20438 0
      vertex 1.53354 -0.843068 0
      vertex 1.62711 -0.644217 0
    endloop
  endfacet
  facet normal 0 0 -1
    outer loop
      vertex 2.02254 -1.46946 0
      vertex 1.41578 -1.02862 0
      vertex 1.53354 -0.843068 0
    endloop
  endfacet
  facet normal 0 0 -1
    outer loop
      vertex 1.11549 -1.3484 0
      vertex 1.59356 -1.92628 0
      vertex 1.33957 -2.11082 0
    endloop
  endfacet
  facet normal 0 0 -1
    outer loop
      vertex 1.82242 -1.71137 0
      vertex 1.27569 -1.19796 0
      vertex 1.41578 -1.02862 0
    endloop
  endfacet
  facet normal 0 0 -1
    outer loop
      vertex 1.59356 -1.92628 0
      vertex 1.11549 -1.3484 0
      vertex 1.27569 -1.19796 0
    endloop
  endfacet
  facet normal 0 0 -1
    outer loop
      vertex 0.937696 -1.47757 0
      vertex 1.33957 -2.11082 0
      vertex 1.06445 -2.26207 0
    endloop
  endfacet
  facet normal 0 0 -1
    outer loop
      vertex 1.33957 -2.11082 0
      vertex 0.937696 -1.47757 0
      vertex 1.11549 -1.3484 0
    endloop
  endfacet
  facet normal 0 0 -1
    outer loop
      vertex 0.745113 -1.58345 0
      vertex 1.06445 -2.26207 0
      vertex 0.772542 -2.37764 0
    endloop
  endfacet
  facet normal 0 0 -1
    outer loop
      vertex 1.06445 -2.26207 0
      vertex 0.745113 -1.58345 0
      vertex 0.937696 -1.47757 0
    endloop
  endfacet
  facet normal 0 0 -1
    outer loop
      vertex 0.772542 -2.37764 0
      vertex 0.540779 -1.66435 0
      vertex 0.745113 -1.58345 0
    endloop
  endfacet
  facet normal 0 0 -1
    outer loop
      vertex 0.468452 -2.45572 0
      vertex 0.540779 -1.66435 0
      vertex 0.772542 -2.37764 0
    endloop
  endfacet
  facet normal 0 0 -1
    outer loop
      vertex 0.468452 -2.45572 0
      vertex 0.327917 -1.719 0
      vertex 0.540779 -1.66435 0
    endloop
  endfacet
  facet normal 0 0 -1
    outer loop
      vertex 0.156976 -2.49507 0
      vertex 0.327917 -1.719 0
      vertex 0.468452 -2.45572 0
    endloop
  endfacet
  facet normal 0 0 -1
    outer loop
      vertex 0.156976 -2.49507 0
      vertex 0.109883 -1.74655 0
      vertex 0.327917 -1.719 0
    endloop
  endfacet
  facet normal 0 0 -1
    outer loop
      vertex 0.156976 -2.49507 0
      vertex -0.109883 -1.74655 0
      vertex 0.109883 -1.74655 0
    endloop
  endfacet
  facet normal 0 0 -1
    outer loop
      vertex -0.156976 -2.49507 0
      vertex -0.109883 -1.74655 0
      vertex 0.156976 -2.49507 0
    endloop
  endfacet
  facet normal 0 0 -1
    outer loop
      vertex -0.156976 -2.49507 0
      vertex -0.327917 -1.719 0
      vertex -0.109883 -1.74655 0
    endloop
  endfacet
  facet normal 0 0 -1
    outer loop
      vertex -0.468452 -2.45572 0
      vertex -0.327917 -1.719 0
      vertex -0.156976 -2.49507 0
    endloop
  endfacet
  facet normal 0 0 -1
    outer loop
      vertex -0.468452 -2.45572 0
      vertex -0.540779 -1.66435 0
      vertex -0.327917 -1.719 0
    endloop
  endfacet
  facet normal 0 0 -1
    outer loop
      vertex -0.772542 -2.37764 0
      vertex -0.540779 -1.66435 0
      vertex -0.468452 -2.45572 0
    endloop
  endfacet
  facet normal -0 0 -1
    outer loop
      vertex -0.540779 -1.66435 0
      vertex -0.772542 -2.37764 0
      vertex -0.745113 -1.58345 0
    endloop
  endfacet
  facet normal 0 0 -1
    outer loop
      vertex -1.06445 -2.26207 0
      vertex -0.745113 -1.58345 0
      vertex -0.772542 -2.37764 0
    endloop
  endfacet
  facet normal -0 0 -1
    outer loop
      vertex -0.745113 -1.58345 0
      vertex -1.06445 -2.26207 0
      vertex -0.937696 -1.47757 0
    endloop
  endfacet
  facet normal 0 0 -1
    outer loop
      vertex -1.33957 -2.11082 0
      vertex -0.937696 -1.47757 0
      vertex -1.06445 -2.26207 0
    endloop
  endfacet
  facet normal -0 0 -1
    outer loop
      vertex -0.937696 -1.47757 0
      vertex -1.33957 -2.11082 0
      vertex -1.11549 -1.3484 0
    endloop
  endfacet
  facet normal 0 0 -1
    outer loop
      vertex -1.59356 -1.92628 0
      vertex -1.11549 -1.3484 0
      vertex -1.33957 -2.11082 0
    endloop
  endfacet
  facet normal -0 0 -1
    outer loop
      vertex -1.11549 -1.3484 0
      vertex -1.59356 -1.92628 0
      vertex -1.27569 -1.19796 0
    endloop
  endfacet
  facet normal 0 0 -1
    outer loop
      vertex -1.82242 -1.71137 0
      vertex -1.27569 -1.19796 0
      vertex -1.59356 -1.92628 0
    endloop
  endfacet
  facet normal -0 0 -1
    outer loop
      vertex -1.27569 -1.19796 0
      vertex -1.82242 -1.71137 0
      vertex -1.41578 -1.02862 0
    endloop
  endfacet
  facet normal 0 0 -1
    outer loop
      vertex -2.02254 -1.46946 0
      vertex -1.41578 -1.02862 0
      vertex -1.82242 -1.71137 0
    endloop
  endfacet
  facet normal -0 0 -1
    outer loop
      vertex -1.41578 -1.02862 0
      vertex -2.02254 -1.46946 0
      vertex -1.53354 -0.843068 0
    endloop
  endfacet
  facet normal 0 0 -1
    outer loop
      vertex -2.19077 -1.20438 0
      vertex -1.53354 -0.843068 0
      vertex -2.02254 -1.46946 0
    endloop
  endfacet
  facet normal 0 0 -1
    outer loop
      vertex -2.32444 -0.920311 0
      vertex -1.62711 -0.644217 0
      vertex -2.19077 -1.20438 0
    endloop
  endfacet
  facet normal -0 0 -1
    outer loop
      vertex -1.53354 -0.843068 0
      vertex -2.19077 -1.20438 0
      vertex -1.62711 -0.644217 0
    endloop
  endfacet
  facet normal -0 0 -1
    outer loop
      vertex 2.32444 0.920311 0
      vertex 1.62711 0.644217 0
      vertex 2.19077 1.20438 0
    endloop
  endfacet
  facet normal 0 0 -1
    outer loop
      vertex 1.53354 0.843068 0
      vertex 2.19077 1.20438 0
      vertex 1.62711 0.644217 0
    endloop
  endfacet
  facet normal -0 0 -1
    outer loop
      vertex 2.19077 1.20438 0
      vertex 1.53354 0.843068 0
      vertex 2.02254 1.46946 0
    endloop
  endfacet
  facet normal 0 0 -1
    outer loop
      vertex 1.41578 1.02862 0
      vertex 2.02254 1.46946 0
      vertex 1.53354 0.843068 0
    endloop
  endfacet
  facet normal -0 0 -1
    outer loop
      vertex 2.02254 1.46946 0
      vertex 1.41578 1.02862 0
      vertex 1.82242 1.71137 0
    endloop
  endfacet
  facet normal 0 0 -1
    outer loop
      vertex 1.27569 1.19796 0
      vertex 1.82242 1.71137 0
      vertex 1.41578 1.02862 0
    endloop
  endfacet
  facet normal -0 0 -1
    outer loop
      vertex 1.82242 1.71137 0
      vertex 1.27569 1.19796 0
      vertex 1.59356 1.92628 0
    endloop
  endfacet
  facet normal 0 0 -1
    outer loop
      vertex 1.11549 1.3484 0
      vertex 1.59356 1.92628 0
      vertex 1.27569 1.19796 0
    endloop
  endfacet
  facet normal -0 0 -1
    outer loop
      vertex 1.59356 1.92628 0
      vertex 1.11549 1.3484 0
      vertex 1.33957 2.11082 0
    endloop
  endfacet
  facet normal 0 0 -1
    outer loop
      vertex 0.937696 1.47757 0
      vertex 1.33957 2.11082 0
      vertex 1.11549 1.3484 0
    endloop
  endfacet
  facet normal -0 0 -1
    outer loop
      vertex 1.33957 2.11082 0
      vertex 0.937696 1.47757 0
      vertex 1.06445 2.26207 0
    endloop
  endfacet
  facet normal 0 0 -1
    outer loop
      vertex 0.745113 1.58345 0
      vertex 1.06445 2.26207 0
      vertex 0.937696 1.47757 0
    endloop
  endfacet
  facet normal -0 0 -1
    outer loop
      vertex 1.06445 2.26207 0
      vertex 0.745113 1.58345 0
      vertex 0.772542 2.37764 0
    endloop
  endfacet
  facet normal 0 0 -1
    outer loop
      vertex 0.540779 1.66435 0
      vertex 0.772542 2.37764 0
      vertex 0.745113 1.58345 0
    endloop
  endfacet
  facet normal 0 0 -1
    outer loop
      vertex 0.540779 1.66435 0
      vertex 0.468452 2.45572 0
      vertex 0.772542 2.37764 0
    endloop
  endfacet
  facet normal 0 0 -1
    outer loop
      vertex 0.327917 1.719 0
      vertex 0.468452 2.45572 0
      vertex 0.540779 1.66435 0
    endloop
  endfacet
  facet normal 0 0 -1
    outer loop
      vertex 0.327917 1.719 0
      vertex 0.156976 2.49507 0
      vertex 0.468452 2.45572 0
    endloop
  endfacet
  facet normal 0 0 -1
    outer loop
      vertex 0.109883 1.74655 0
      vertex 0.156976 2.49507 0
      vertex 0.327917 1.719 0
    endloop
  endfacet
  facet normal 0 0 -1
    outer loop
      vertex -0.109883 1.74655 0
      vertex 0.156976 2.49507 0
      vertex 0.109883 1.74655 0
    endloop
  endfacet
  facet normal 0 0 -1
    outer loop
      vertex -0.109883 1.74655 0
      vertex -0.156976 2.49507 0
      vertex 0.156976 2.49507 0
    endloop
  endfacet
  facet normal 0 0 -1
    outer loop
      vertex -0.327917 1.719 0
      vertex -0.156976 2.49507 0
      vertex -0.109883 1.74655 0
    endloop
  endfacet
  facet normal 0 0 -1
    outer loop
      vertex -0.327917 1.719 0
      vertex -0.468452 2.45572 0
      vertex -0.156976 2.49507 0
    endloop
  endfacet
  facet normal 0 0 -1
    outer loop
      vertex -0.540779 1.66435 0
      vertex -0.468452 2.45572 0
      vertex -0.327917 1.719 0
    endloop
  endfacet
  facet normal 0 0 -1
    outer loop
      vertex -0.772542 2.37764 0
      vertex -0.540779 1.66435 0
      vertex -0.745113 1.58345 0
    endloop
  endfacet
  facet normal 0 0 -1
    outer loop
      vertex -0.540779 1.66435 0
      vertex -0.772542 2.37764 0
      vertex -0.468452 2.45572 0
    endloop
  endfacet
  facet normal 0 0 -1
    outer loop
      vertex -1.06445 2.26207 0
      vertex -0.745113 1.58345 0
      vertex -0.937696 1.47757 0
    endloop
  endfacet
  facet normal 0 0 -1
    outer loop
      vertex -0.745113 1.58345 0
      vertex -1.06445 2.26207 0
      vertex -0.772542 2.37764 0
    endloop
  endfacet
  facet normal 0 0 -1
    outer loop
      vertex -1.33957 2.11082 0
      vertex -0.937696 1.47757 0
      vertex -1.11549 1.3484 0
    endloop
  endfacet
  facet normal 0 0 -1
    outer loop
      vertex -1.59356 1.92628 0
      vertex -1.11549 1.3484 0
      vertex -1.27569 1.19796 0
    endloop
  endfacet
  facet normal 0 0 -1
    outer loop
      vertex -0.937696 1.47757 0
      vertex -1.33957 2.11082 0
      vertex -1.06445 2.26207 0
    endloop
  endfacet
  facet normal 0 0 -1
    outer loop
      vertex -1.82242 1.71137 0
      vertex -1.27569 1.19796 0
      vertex -1.41578 1.02862 0
    endloop
  endfacet
  facet normal 0 0 -1
    outer loop
      vertex -2.02254 1.46946 0
      vertex -1.41578 1.02862 0
      vertex -1.53354 0.843068 0
    endloop
  endfacet
  facet normal 0 0 -1
    outer loop
      vertex -1.11549 1.3484 0
      vertex -1.59356 1.92628 0
      vertex -1.33957 2.11082 0
    endloop
  endfacet
  facet normal 0 0 -1
    outer loop
      vertex -2.19077 1.20438 0
      vertex -1.53354 0.843068 0
      vertex -1.62711 0.644217 0
    endloop
  endfacet
  facet normal 0 0 -1
    outer loop
      vertex -2.32444 0.920311 0
      vertex -1.62711 0.644217 0
      vertex -1.69502 0.435206 0
    endloop
  endfacet
  facet normal 0 0 -1
    outer loop
      vertex -2.42146 0.621724 0
      vertex -1.69502 0.435206 0
      vertex -1.7362 0.219333 0
    endloop
  endfacet
  facet normal 0 0 -1
    outer loop
      vertex -1.27569 1.19796 0
      vertex -1.82242 1.71137 0
      vertex -1.59356 1.92628 0
    endloop
  endfacet
  facet normal 0 0 -1
    outer loop
      vertex -2.48029 0.313333 0
      vertex -1.7362 0.219333 0
      vertex -1.75 0 0
    endloop
  endfacet
  facet normal -0 0 -1
    outer loop
      vertex -1.62711 -0.644217 0
      vertex -2.32444 -0.920311 0
      vertex -1.69502 -0.435206 0
    endloop
  endfacet
  facet normal 0 0 -1
    outer loop
      vertex -2.42146 -0.621724 0
      vertex -1.69502 -0.435206 0
      vertex -2.32444 -0.920311 0
    endloop
  endfacet
  facet normal 0 0 -1
    outer loop
      vertex -1.41578 1.02862 0
      vertex -2.02254 1.46946 0
      vertex -1.82242 1.71137 0
    endloop
  endfacet
  facet normal -0 0 -1
    outer loop
      vertex -1.69502 -0.435206 0
      vertex -2.42146 -0.621724 0
      vertex -1.7362 -0.219333 0
    endloop
  endfacet
  facet normal 0 0 -1
    outer loop
      vertex -1.53354 0.843068 0
      vertex -2.19077 1.20438 0
      vertex -2.02254 1.46946 0
    endloop
  endfacet
  facet normal 0 0 -1
    outer loop
      vertex -2.48029 -0.313333 0
      vertex -1.7362 -0.219333 0
      vertex -2.42146 -0.621724 0
    endloop
  endfacet
  facet normal 0 0 -1
    outer loop
      vertex -1.62711 0.644217 0
      vertex -2.32444 0.920311 0
      vertex -2.19077 1.20438 0
    endloop
  endfacet
  facet normal -0 0 -1
    outer loop
      vertex -1.7362 -0.219333 0
      vertex -2.48029 -0.313333 0
      vertex -1.75 0 0
    endloop
  endfacet
  facet normal 0 0 -1
    outer loop
      vertex -1.69502 0.435206 0
      vertex -2.42146 0.621724 0
      vertex -2.32444 0.920311 0
    endloop
  endfacet
  facet normal 0 0 -1
    outer loop
      vertex -2.5 0 0
      vertex -1.75 0 0
      vertex -2.48029 -0.313333 0
    endloop
  endfacet
  facet normal 0 0 -1
    outer loop
      vertex -1.7362 0.219333 0
      vertex -2.48029 0.313333 0
      vertex -2.42146 0.621724 0
    endloop
  endfacet
  facet normal 0 0 -1
    outer loop
      vertex -1.75 0 0
      vertex -2.5 0 0
      vertex -2.48029 0.313333 0
    endloop
  endfacet
  facet normal -0.998027 -0.0627802 0
    outer loop
      vertex -2.48029 -0.313333 0
      vertex -2.5 0 12
      vertex -2.5 0 0
    endloop
  endfacet
  facet normal -0.998027 -0.0627802 0
    outer loop
      vertex -2.5 0 12
      vertex -2.48029 -0.313333 0
      vertex -2.48029 -0.313333 12
    endloop
  endfacet
  facet normal -0.125338 -0.992114 0
    outer loop
      vertex -0.468452 -2.45572 0
      vertex -0.156976 -2.49507 12
      vertex -0.468452 -2.45572 12
    endloop
  endfacet
  facet normal -0.125338 -0.992114 -0
    outer loop
      vertex -0.156976 -2.49507 12
      vertex -0.468452 -2.45572 0
      vertex -0.156976 -2.49507 0
    endloop
  endfacet
  facet normal -0.90483 -0.425772 0
    outer loop
      vertex -2.19077 -1.20438 0
      vertex -2.32444 -0.920311 12
      vertex -2.32444 -0.920311 0
    endloop
  endfacet
  facet normal -0.90483 -0.425772 0
    outer loop
      vertex -2.32444 -0.920311 12
      vertex -2.19077 -1.20438 0
      vertex -2.19077 -1.20438 12
    endloop
  endfacet
  facet normal -0.982287 -0.187385 0
    outer loop
      vertex -2.42146 -0.621724 0
      vertex -2.48029 -0.313333 12
      vertex -2.48029 -0.313333 0
    endloop
  endfacet
  facet normal -0.982287 -0.187385 0
    outer loop
      vertex -2.48029 -0.313333 12
      vertex -2.42146 -0.621724 0
      vertex -2.42146 -0.621724 12
    endloop
  endfacet
  facet normal 0.248699 0.968581 -0
    outer loop
      vertex 0.772542 2.37764 0
      vertex 0.468452 2.45572 12
      vertex 0.772542 2.37764 12
    endloop
  endfacet
  facet normal 0.248699 0.968581 0
    outer loop
      vertex 0.468452 2.45572 12
      vertex 0.772542 2.37764 0
      vertex 0.468452 2.45572 0
    endloop
  endfacet
  facet normal -0.844321 -0.535838 0
    outer loop
      vertex -2.02254 -1.46946 0
      vertex -2.19077 -1.20438 12
      vertex -2.19077 -1.20438 0
    endloop
  endfacet
  facet normal -0.844321 -0.535838 0
    outer loop
      vertex -2.19077 -1.20438 12
      vertex -2.02254 -1.46946 0
      vertex -2.02254 -1.46946 12
    endloop
  endfacet
  facet normal -0.998027 0.0627802 0
    outer loop
      vertex -2.5 0 0
      vertex -2.48029 0.313333 12
      vertex -2.48029 0.313333 0
    endloop
  endfacet
  facet normal -0.998027 0.0627802 0
    outer loop
      vertex -2.48029 0.313333 12
      vertex -2.5 0 0
      vertex -2.5 0 12
    endloop
  endfacet
  facet normal -0.481757 0.876305 0
    outer loop
      vertex -1.06445 2.26207 0
      vertex -1.33957 2.11082 12
      vertex -1.06445 2.26207 12
    endloop
  endfacet
  facet normal -0.481757 0.876305 0
    outer loop
      vertex -1.33957 2.11082 12
      vertex -1.06445 2.26207 0
      vertex -1.33957 2.11082 0
    endloop
  endfacet
  facet normal 0 -1 0
    outer loop
      vertex -0.156976 -2.49507 0
      vertex 0.156976 -2.49507 12
      vertex -0.156976 -2.49507 12
    endloop
  endfacet
  facet normal 0 -1 -0
    outer loop
      vertex 0.156976 -2.49507 12
      vertex -0.156976 -2.49507 0
      vertex 0.156976 -2.49507 0
    endloop
  endfacet
  facet normal -0.844321 0.535838 0
    outer loop
      vertex -2.19077 1.20438 0
      vertex -2.02254 1.46946 12
      vertex -2.02254 1.46946 0
    endloop
  endfacet
  facet normal -0.844321 0.535838 0
    outer loop
      vertex -2.02254 1.46946 12
      vertex -2.19077 1.20438 0
      vertex -2.19077 1.20438 12
    endloop
  endfacet
  facet normal -0.982287 0.187385 0
    outer loop
      vertex -2.48029 0.313333 0
      vertex -2.42146 0.621724 12
      vertex -2.42146 0.621724 0
    endloop
  endfacet
  facet normal -0.982287 0.187385 0
    outer loop
      vertex -2.42146 0.621724 12
      vertex -2.48029 0.313333 0
      vertex -2.48029 0.313333 12
    endloop
  endfacet
  facet normal 0 1 -0
    outer loop
      vertex 0.156976 2.49507 0
      vertex -0.156976 2.49507 12
      vertex 0.156976 2.49507 12
    endloop
  endfacet
  facet normal 0 1 0
    outer loop
      vertex -0.156976 2.49507 12
      vertex 0.156976 2.49507 0
      vertex -0.156976 2.49507 0
    endloop
  endfacet
  facet normal 0.481757 -0.876305 0
    outer loop
      vertex 1.06445 -2.26207 0
      vertex 1.33957 -2.11082 12
      vertex 1.06445 -2.26207 12
    endloop
  endfacet
  facet normal 0.481757 -0.876305 0
    outer loop
      vertex 1.33957 -2.11082 12
      vertex 1.06445 -2.26207 0
      vertex 1.33957 -2.11082 0
    endloop
  endfacet
  facet normal -0.90483 0.425772 0
    outer loop
      vertex -2.32444 0.920311 0
      vertex -2.19077 1.20438 12
      vertex -2.19077 1.20438 0
    endloop
  endfacet
  facet normal -0.90483 0.425772 0
    outer loop
      vertex -2.19077 1.20438 12
      vertex -2.32444 0.920311 0
      vertex -2.32444 0.920311 12
    endloop
  endfacet
  facet normal -0.770522 0.637414 0
    outer loop
      vertex -2.02254 1.46946 0
      vertex -1.82242 1.71137 12
      vertex -1.82242 1.71137 0
    endloop
  endfacet
  facet normal -0.770522 0.637414 0
    outer loop
      vertex -1.82242 1.71137 12
      vertex -2.02254 1.46946 0
      vertex -2.02254 1.46946 12
    endloop
  endfacet
  facet normal -0.982287 -0.187381 0
    outer loop
      vertex 1.7362 0.219333 0
      vertex 1.69502 0.435206 12
      vertex 1.69502 0.435206 0
    endloop
  endfacet
  facet normal -0.982287 -0.187381 0
    outer loop
      vertex 1.69502 0.435206 12
      vertex 1.7362 0.219333 0
      vertex 1.7362 0.219333 12
    endloop
  endfacet
  facet normal -0.998027 -0.0627939 0
    outer loop
      vertex 1.75 0 0
      vertex 1.7362 0.219333 12
      vertex 1.7362 0.219333 0
    endloop
  endfacet
  facet normal -0.998027 -0.0627939 0
    outer loop
      vertex 1.7362 0.219333 12
      vertex 1.75 0 0
      vertex 1.75 0 12
    endloop
  endfacet
  facet normal -0.951059 -0.30901 0
    outer loop
      vertex 1.69502 0.435206 0
      vertex 1.62711 0.644217 12
      vertex 1.62711 0.644217 0
    endloop
  endfacet
  facet normal -0.951059 -0.30901 0
    outer loop
      vertex 1.62711 0.644217 12
      vertex 1.69502 0.435206 0
      vertex 1.69502 0.435206 12
    endloop
  endfacet
  facet normal -0.904831 0.425771 0
    outer loop
      vertex 1.53354 -0.843068 0
      vertex 1.62711 -0.644217 12
      vertex 1.62711 -0.644217 0
    endloop
  endfacet
  facet normal -0.904831 0.425771 0
    outer loop
      vertex 1.62711 -0.644217 12
      vertex 1.53354 -0.843068 0
      vertex 1.53354 -0.843068 12
    endloop
  endfacet
  facet normal -0.368118 -0.929779 0
    outer loop
      vertex 0.540779 1.66435 0
      vertex 0.745113 1.58345 12
      vertex 0.540779 1.66435 12
    endloop
  endfacet
  facet normal -0.368118 -0.929779 -0
    outer loop
      vertex 0.745113 1.58345 12
      vertex 0.540779 1.66435 0
      vertex 0.745113 1.58345 0
    endloop
  endfacet
  facet normal -0.587771 0.809028 0
    outer loop
      vertex 1.11549 -1.3484 0
      vertex 0.937696 -1.47757 12
      vertex 1.11549 -1.3484 12
    endloop
  endfacet
  facet normal -0.587771 0.809028 0
    outer loop
      vertex 0.937696 -1.47757 12
      vertex 1.11549 -1.3484 0
      vertex 0.937696 -1.47757 0
    endloop
  endfacet
  facet normal -0.998027 0.0627939 0
    outer loop
      vertex 1.7362 -0.219333 0
      vertex 1.75 0 12
      vertex 1.75 0 0
    endloop
  endfacet
  facet normal -0.998027 0.0627939 0
    outer loop
      vertex 1.75 0 12
      vertex 1.7362 -0.219333 0
      vertex 1.7362 -0.219333 12
    endloop
  endfacet
  facet normal 0.998027 0.0627939 0
    outer loop
      vertex -1.7362 -0.219333 12
      vertex -1.75 0 0
      vertex -1.75 0 12
    endloop
  endfacet
  facet normal 0.998027 0.0627939 0
    outer loop
      vertex -1.75 0 0
      vertex -1.7362 -0.219333 12
      vertex -1.7362 -0.219333 0
    endloop
  endfacet
  facet normal 0.951059 0.30901 0
    outer loop
      vertex -1.62711 -0.644217 12
      vertex -1.69502 -0.435206 0
      vertex -1.69502 -0.435206 12
    endloop
  endfacet
  facet normal 0.951059 0.30901 0
    outer loop
      vertex -1.69502 -0.435206 0
      vertex -1.62711 -0.644217 12
      vertex -1.62711 -0.644217 0
    endloop
  endfacet
  facet normal -0.904831 -0.425771 0
    outer loop
      vertex 1.62711 0.644217 0
      vertex 1.53354 0.843068 12
      vertex 1.53354 0.843068 0
    endloop
  endfacet
  facet normal -0.904831 -0.425771 0
    outer loop
      vertex 1.53354 0.843068 12
      vertex 1.62711 0.644217 0
      vertex 1.62711 0.644217 12
    endloop
  endfacet
  facet normal 0 -1 0
    outer loop
      vertex -0.109883 1.74655 0
      vertex 0.109883 1.74655 12
      vertex -0.109883 1.74655 12
    endloop
  endfacet
  facet normal 0 -1 -0
    outer loop
      vertex 0.109883 1.74655 12
      vertex -0.109883 1.74655 0
      vertex 0.109883 1.74655 0
    endloop
  endfacet
  facet normal 0.248674 0.968587 -0
    outer loop
      vertex -0.327917 -1.719 0
      vertex -0.540779 -1.66435 12
      vertex -0.327917 -1.719 12
    endloop
  endfacet
  facet normal 0.248674 0.968587 0
    outer loop
      vertex -0.540779 -1.66435 12
      vertex -0.327917 -1.719 0
      vertex -0.540779 -1.66435 0
    endloop
  endfacet
  facet normal -0.368118 0.929779 0
    outer loop
      vertex 0.745113 -1.58345 0
      vertex 0.540779 -1.66435 12
      vertex 0.745113 -1.58345 12
    endloop
  endfacet
  facet normal -0.368118 0.929779 0
    outer loop
      vertex 0.540779 -1.66435 12
      vertex 0.745113 -1.58345 0
      vertex 0.540779 -1.66435 0
    endloop
  endfacet
  facet normal 0.904831 0.425771 0
    outer loop
      vertex -1.53354 -0.843068 12
      vertex -1.62711 -0.644217 0
      vertex -1.62711 -0.644217 12
    endloop
  endfacet
  facet normal 0.904831 0.425771 0
    outer loop
      vertex -1.62711 -0.644217 0
      vertex -1.53354 -0.843068 12
      vertex -1.53354 -0.843068 0
    endloop
  endfacet
  facet normal 0.248674 -0.968587 0
    outer loop
      vertex -0.540779 1.66435 0
      vertex -0.327917 1.719 12
      vertex -0.540779 1.66435 12
    endloop
  endfacet
  facet normal 0.248674 -0.968587 0
    outer loop
      vertex -0.327917 1.719 12
      vertex -0.540779 1.66435 0
      vertex -0.327917 1.719 0
    endloop
  endfacet
  facet normal 0.684552 0.728964 -0
    outer loop
      vertex -1.11549 -1.3484 0
      vertex -1.27569 -1.19796 12
      vertex -1.11549 -1.3484 12
    endloop
  endfacet
  facet normal 0.684552 0.728964 0
    outer loop
      vertex -1.27569 -1.19796 12
      vertex -1.11549 -1.3484 0
      vertex -1.27569 -1.19796 0
    endloop
  endfacet
  facet normal 0.770514 -0.637423 0
    outer loop
      vertex -1.41578 1.02862 12
      vertex -1.27569 1.19796 0
      vertex -1.27569 1.19796 12
    endloop
  endfacet
  facet normal 0.770514 -0.637423 0
    outer loop
      vertex -1.27569 1.19796 0
      vertex -1.41578 1.02862 12
      vertex -1.41578 1.02862 0
    endloop
  endfacet
  facet normal 0.12536 0.992111 -0
    outer loop
      vertex -0.109883 -1.74655 0
      vertex -0.327917 -1.719 12
      vertex -0.109883 -1.74655 12
    endloop
  endfacet
  facet normal 0.12536 0.992111 0
    outer loop
      vertex -0.327917 -1.719 12
      vertex -0.109883 -1.74655 0
      vertex -0.327917 -1.719 0
    endloop
  endfacet
  facet normal 0.368118 -0.929779 0
    outer loop
      vertex -0.745113 1.58345 0
      vertex -0.540779 1.66435 12
      vertex -0.745113 1.58345 12
    endloop
  endfacet
  facet normal 0.368118 -0.929779 0
    outer loop
      vertex -0.540779 1.66435 12
      vertex -0.745113 1.58345 0
      vertex -0.540779 1.66435 0
    endloop
  endfacet
  facet normal -0.248674 -0.968587 0
    outer loop
      vertex 0.327917 1.719 0
      vertex 0.540779 1.66435 12
      vertex 0.327917 1.719 12
    endloop
  endfacet
  facet normal -0.248674 -0.968587 -0
    outer loop
      vertex 0.540779 1.66435 12
      vertex 0.327917 1.719 0
      vertex 0.540779 1.66435 0
    endloop
  endfacet
  facet normal -0.844317 -0.535843 0
    outer loop
      vertex 1.53354 0.843068 0
      vertex 1.41578 1.02862 12
      vertex 1.41578 1.02862 0
    endloop
  endfacet
  facet normal -0.844317 -0.535843 0
    outer loop
      vertex 1.41578 1.02862 12
      vertex 1.53354 0.843068 0
      vertex 1.53354 0.843068 12
    endloop
  endfacet
  facet normal -0.587771 -0.809028 0
    outer loop
      vertex 0.937696 1.47757 0
      vertex 1.11549 1.3484 12
      vertex 0.937696 1.47757 12
    endloop
  endfacet
  facet normal -0.587771 -0.809028 -0
    outer loop
      vertex 1.11549 1.3484 12
      vertex 0.937696 1.47757 0
      vertex 1.11549 1.3484 0
    endloop
  endfacet
  facet normal -0.12536 0.992111 0
    outer loop
      vertex 0.327917 -1.719 0
      vertex 0.109883 -1.74655 12
      vertex 0.327917 -1.719 12
    endloop
  endfacet
  facet normal -0.12536 0.992111 0
    outer loop
      vertex 0.109883 -1.74655 12
      vertex 0.327917 -1.719 0
      vertex 0.109883 -1.74655 0
    endloop
  endfacet
  facet normal -0.844317 0.535843 0
    outer loop
      vertex 1.41578 -1.02862 0
      vertex 1.53354 -0.843068 12
      vertex 1.53354 -0.843068 0
    endloop
  endfacet
  facet normal -0.844317 0.535843 0
    outer loop
      vertex 1.53354 -0.843068 12
      vertex 1.41578 -1.02862 0
      vertex 1.41578 -1.02862 12
    endloop
  endfacet
  facet normal -0.770514 0.637423 0
    outer loop
      vertex 1.27569 -1.19796 0
      vertex 1.41578 -1.02862 12
      vertex 1.41578 -1.02862 0
    endloop
  endfacet
  facet normal -0.770514 0.637423 0
    outer loop
      vertex 1.41578 -1.02862 12
      vertex 1.27569 -1.19796 0
      vertex 1.27569 -1.19796 12
    endloop
  endfacet
  facet normal 0.951059 -0.30901 0
    outer loop
      vertex -1.69502 0.435206 12
      vertex -1.62711 0.644217 0
      vertex -1.62711 0.644217 12
    endloop
  endfacet
  facet normal 0.951059 -0.30901 0
    outer loop
      vertex -1.62711 0.644217 0
      vertex -1.69502 0.435206 12
      vertex -1.69502 0.435206 0
    endloop
  endfacet
  facet normal -0.684552 -0.728964 0
    outer loop
      vertex 1.11549 1.3484 0
      vertex 1.27569 1.19796 12
      vertex 1.11549 1.3484 12
    endloop
  endfacet
  facet normal -0.684552 -0.728964 -0
    outer loop
      vertex 1.27569 1.19796 12
      vertex 1.11549 1.3484 0
      vertex 1.27569 1.19796 0
    endloop
  endfacet
  facet normal 0 1 -0
    outer loop
      vertex 0.109883 -1.74655 0
      vertex -0.109883 -1.74655 12
      vertex 0.109883 -1.74655 12
    endloop
  endfacet
  facet normal 0 1 0
    outer loop
      vertex -0.109883 -1.74655 12
      vertex 0.109883 -1.74655 0
      vertex -0.109883 -1.74655 0
    endloop
  endfacet
  facet normal -0.248674 0.968587 0
    outer loop
      vertex 0.540779 -1.66435 0
      vertex 0.327917 -1.719 12
      vertex 0.540779 -1.66435 12
    endloop
  endfacet
  facet normal -0.248674 0.968587 0
    outer loop
      vertex 0.327917 -1.719 12
      vertex 0.540779 -1.66435 0
      vertex 0.327917 -1.719 0
    endloop
  endfacet
  facet normal -0.481777 0.876294 0
    outer loop
      vertex 0.937696 -1.47757 0
      vertex 0.745113 -1.58345 12
      vertex 0.937696 -1.47757 12
    endloop
  endfacet
  facet normal -0.481777 0.876294 0
    outer loop
      vertex 0.745113 -1.58345 12
      vertex 0.937696 -1.47757 0
      vertex 0.745113 -1.58345 0
    endloop
  endfacet
  facet normal 0.844317 0.535843 0
    outer loop
      vertex -1.41578 -1.02862 12
      vertex -1.53354 -0.843068 0
      vertex -1.53354 -0.843068 12
    endloop
  endfacet
  facet normal 0.844317 0.535843 0
    outer loop
      vertex -1.53354 -0.843068 0
      vertex -1.41578 -1.02862 12
      vertex -1.41578 -1.02862 0
    endloop
  endfacet
  facet normal 0.481777 -0.876294 0
    outer loop
      vertex -0.937696 1.47757 0
      vertex -0.745113 1.58345 12
      vertex -0.937696 1.47757 12
    endloop
  endfacet
  facet normal 0.481777 -0.876294 0
    outer loop
      vertex -0.745113 1.58345 12
      vertex -0.937696 1.47757 0
      vertex -0.745113 1.58345 0
    endloop
  endfacet
  facet normal -0.481777 -0.876294 0
    outer loop
      vertex 0.745113 1.58345 0
      vertex 0.937696 1.47757 12
      vertex 0.745113 1.58345 12
    endloop
  endfacet
  facet normal -0.481777 -0.876294 -0
    outer loop
      vertex 0.937696 1.47757 12
      vertex 0.745113 1.58345 0
      vertex 0.937696 1.47757 0
    endloop
  endfacet
  facet normal -0.770514 -0.637423 0
    outer loop
      vertex 1.41578 1.02862 0
      vertex 1.27569 1.19796 12
      vertex 1.27569 1.19796 0
    endloop
  endfacet
  facet normal -0.770514 -0.637423 0
    outer loop
      vertex 1.27569 1.19796 12
      vertex 1.41578 1.02862 0
      vertex 1.41578 1.02862 12
    endloop
  endfacet
  facet normal -0.982287 0.187381 0
    outer loop
      vertex 1.69502 -0.435206 0
      vertex 1.7362 -0.219333 12
      vertex 1.7362 -0.219333 0
    endloop
  endfacet
  facet normal -0.982287 0.187381 0
    outer loop
      vertex 1.7362 -0.219333 12
      vertex 1.69502 -0.435206 0
      vertex 1.69502 -0.435206 12
    endloop
  endfacet
  facet normal 0.904831 -0.425771 0
    outer loop
      vertex -1.62711 0.644217 12
      vertex -1.53354 0.843068 0
      vertex -1.53354 0.843068 12
    endloop
  endfacet
  facet normal 0.904831 -0.425771 0
    outer loop
      vertex -1.53354 0.843068 0
      vertex -1.62711 0.644217 12
      vertex -1.62711 0.644217 0
    endloop
  endfacet
  facet normal -0.684552 0.728964 0
    outer loop
      vertex 1.27569 -1.19796 0
      vertex 1.11549 -1.3484 12
      vertex 1.27569 -1.19796 12
    endloop
  endfacet
  facet normal -0.684552 0.728964 0
    outer loop
      vertex 1.11549 -1.3484 12
      vertex 1.27569 -1.19796 0
      vertex 1.11549 -1.3484 0
    endloop
  endfacet
  facet normal 0.844317 -0.535843 0
    outer loop
      vertex -1.53354 0.843068 12
      vertex -1.41578 1.02862 0
      vertex -1.41578 1.02862 12
    endloop
  endfacet
  facet normal 0.844317 -0.535843 0
    outer loop
      vertex -1.41578 1.02862 0
      vertex -1.53354 0.843068 12
      vertex -1.53354 0.843068 0
    endloop
  endfacet
  facet normal 0.770514 0.637423 0
    outer loop
      vertex -1.27569 -1.19796 12
      vertex -1.41578 -1.02862 0
      vertex -1.41578 -1.02862 12
    endloop
  endfacet
  facet normal 0.770514 0.637423 0
    outer loop
      vertex -1.41578 -1.02862 0
      vertex -1.27569 -1.19796 12
      vertex -1.27569 -1.19796 0
    endloop
  endfacet
  facet normal 0.587771 -0.809028 0
    outer loop
      vertex -1.11549 1.3484 0
      vertex -0.937696 1.47757 12
      vertex -1.11549 1.3484 12
    endloop
  endfacet
  facet normal 0.587771 -0.809028 0
    outer loop
      vertex -0.937696 1.47757 12
      vertex -1.11549 1.3484 0
      vertex -0.937696 1.47757 0
    endloop
  endfacet
  facet normal -0.951059 0.30901 0
    outer loop
      vertex 1.62711 -0.644217 0
      vertex 1.69502 -0.435206 12
      vertex 1.69502 -0.435206 0
    endloop
  endfacet
  facet normal -0.951059 0.30901 0
    outer loop
      vertex 1.69502 -0.435206 12
      vertex 1.62711 -0.644217 0
      vertex 1.62711 -0.644217 12
    endloop
  endfacet
  facet normal 0.481777 0.876294 -0
    outer loop
      vertex -0.745113 -1.58345 0
      vertex -0.937696 -1.47757 12
      vertex -0.745113 -1.58345 12
    endloop
  endfacet
  facet normal 0.481777 0.876294 0
    outer loop
      vertex -0.937696 -1.47757 12
      vertex -0.745113 -1.58345 0
      vertex -0.937696 -1.47757 0
    endloop
  endfacet
  facet normal 0.368118 0.929779 -0
    outer loop
      vertex -0.540779 -1.66435 0
      vertex -0.745113 -1.58345 12
      vertex -0.540779 -1.66435 12
    endloop
  endfacet
  facet normal 0.368118 0.929779 0
    outer loop
      vertex -0.745113 -1.58345 12
      vertex -0.540779 -1.66435 0
      vertex -0.745113 -1.58345 0
    endloop
  endfacet
  facet normal 0.982287 -0.187381 0
    outer loop
      vertex -1.7362 0.219333 12
      vertex -1.69502 0.435206 0
      vertex -1.69502 0.435206 12
    endloop
  endfacet
  facet normal 0.982287 -0.187381 0
    outer loop
      vertex -1.69502 0.435206 0
      vertex -1.7362 0.219333 12
      vertex -1.7362 0.219333 0
    endloop
  endfacet
  facet normal 0.684552 -0.728964 0
    outer loop
      vertex -1.27569 1.19796 0
      vertex -1.11549 1.3484 12
      vertex -1.27569 1.19796 12
    endloop
  endfacet
  facet normal 0.684552 -0.728964 0
    outer loop
      vertex -1.11549 1.3484 12
      vertex -1.27569 1.19796 0
      vertex -1.11549 1.3484 0
    endloop
  endfacet
  facet normal 0.982287 0.187381 0
    outer loop
      vertex -1.69502 -0.435206 12
      vertex -1.7362 -0.219333 0
      vertex -1.7362 -0.219333 12
    endloop
  endfacet
  facet normal 0.982287 0.187381 0
    outer loop
      vertex -1.7362 -0.219333 0
      vertex -1.69502 -0.435206 12
      vertex -1.69502 -0.435206 0
    endloop
  endfacet
  facet normal 0.12536 -0.992111 0
    outer loop
      vertex -0.327917 1.719 0
      vertex -0.109883 1.74655 12
      vertex -0.327917 1.719 12
    endloop
  endfacet
  facet normal 0.12536 -0.992111 0
    outer loop
      vertex -0.109883 1.74655 12
      vertex -0.327917 1.719 0
      vertex -0.109883 1.74655 0
    endloop
  endfacet
  facet normal 0.998027 -0.0627939 0
    outer loop
      vertex -1.75 0 12
      vertex -1.7362 0.219333 0
      vertex -1.7362 0.219333 12
    endloop
  endfacet
  facet normal 0.998027 -0.0627939 0
    outer loop
      vertex -1.7362 0.219333 0
      vertex -1.75 0 12
      vertex -1.75 0 0
    endloop
  endfacet
  facet normal 0.587771 0.809028 -0
    outer loop
      vertex -0.937696 -1.47757 0
      vertex -1.11549 -1.3484 12
      vertex -0.937696 -1.47757 12
    endloop
  endfacet
  facet normal 0.587771 0.809028 0
    outer loop
      vertex -1.11549 -1.3484 12
      vertex -0.937696 -1.47757 0
      vertex -1.11549 -1.3484 0
    endloop
  endfacet
  facet normal -0.12536 -0.992111 0
    outer loop
      vertex 0.109883 1.74655 0
      vertex 0.327917 1.719 12
      vertex 0.109883 1.74655 12
    endloop
  endfacet
  facet normal -0.12536 -0.992111 -0
    outer loop
      vertex 0.327917 1.719 12
      vertex 0.109883 1.74655 0
      vertex 0.327917 1.719 0
    endloop
  endfacet
endsolid OpenSCAD_Model
